<?xml version="1.0" standalone="no"?>
<!DOCTYPE svg PUBLIC "-//W3C//DTD SVG 20010904//EN"
 "http://www.w3.org/TR/2001/REC-SVG-20010904/DTD/svg10.dtd">
<svg version="1.0" xmlns="http://www.w3.org/2000/svg"
 width="1181.000000pt" height="1181.000000pt" viewBox="0 0 1181.000000 1181.000000"
 preserveAspectRatio="xMidYMid meet">

<g transform="translate(0.000000,1181.000000) scale(0.100000,-0.100000)"
fill="#000000" stroke="none">
<path d="M0 5905 l0 -5905 5905 0 5905 0 0 5905 0 5905 -5905 0 -5905 0 0
-5905z m5024 4660 c-6 -41 -4 -45 14 -45 11 0 25 -7 32 -15 18 -21 67 -19 162
9 103 30 193 42 202 27 4 -6 -2 -28 -14 -50 -29 -59 -27 -71 13 -61 17 4 86
29 152 55 186 74 239 73 225 -5 -9 -50 1 -57 102 -69 62 -7 66 -9 26 -10 -36
-1 -50 -6 -63 -23 -15 -22 -14 -23 7 -30 42 -11 135 -8 177 7 38 13 41 13 51
-5 13 -23 46 -26 57 -5 7 13 15 13 58 -1 105 -33 337 3 365 56 5 10 24 22 42
25 18 4 65 25 104 46 39 22 74 39 77 39 13 0 7 -19 -23 -67 -21 -33 -52 -63
-96 -92 -90 -59 -78 -71 66 -71 99 0 109 -2 122 -21 8 -12 20 -20 27 -18 9 3
5 12 -12 29 -27 28 -41 70 -24 70 38 0 93 -26 127 -60 51 -51 107 -68 163 -51
140 43 178 50 264 50 68 1 103 6 138 21 26 11 60 20 76 20 28 0 28 -1 11 -21
-9 -11 -51 -44 -92 -73 -137 -97 -144 -126 -30 -126 61 0 70 -2 70 -18 0 -10
-5 -23 -12 -30 -9 -9 0 -16 38 -33 27 -11 75 -34 108 -51 40 -21 78 -32 122
-36 35 -2 64 -9 64 -13 0 -5 22 -9 50 -9 27 0 100 -7 162 -16 109 -15 217 -15
390 2 31 3 64 1 74 -4 14 -8 10 -13 -28 -36 -55 -32 -146 -63 -215 -72 -30 -4
-50 -11 -47 -16 9 -14 131 -67 191 -83 161 -42 192 -60 160 -93 -15 -14 -14
-17 16 -35 57 -36 142 -77 158 -77 9 0 21 12 28 26 l11 25 20 -23 c11 -13 29
-35 40 -50 24 -31 99 -60 123 -47 23 14 55 70 76 135 11 36 25 60 35 62 18 4
22 -18 6 -34 -12 -12 -17 -159 -6 -190 3 -11 19 -27 34 -34 15 -7 48 -23 73
-36 32 -16 49 -20 56 -13 6 6 34 12 63 14 49 2 51 1 46 -20 -4 -14 0 -28 9
-35 8 -7 15 -16 15 -21 0 -5 20 -34 45 -64 50 -62 70 -95 57 -95 -5 0 -21 11
-36 25 -50 46 -50 20 -1 -49 39 -55 86 -88 131 -92 61 -6 163 -71 136 -88 -4
-2 -52 -8 -107 -12 -136 -9 -155 -20 -155 -86 0 -27 8 -47 32 -75 74 -88 147
-157 203 -190 79 -48 106 -69 98 -77 -3 -3 -44 -6 -90 -6 -73 0 -83 -2 -83
-18 0 -23 50 -93 135 -189 44 -48 78 -97 89 -128 11 -27 26 -60 34 -73 13 -21
13 -24 -11 -46 -26 -24 -26 -25 -11 -77 25 -85 101 -182 148 -191 10 -1 24
-12 30 -23 6 -11 30 -44 54 -73 23 -30 42 -58 42 -62 0 -5 -10 -10 -22 -12
-22 -3 -23 -8 -26 -93 -2 -61 2 -109 13 -148 9 -32 14 -71 10 -87 -9 -43 14
-146 43 -188 35 -51 63 -192 42 -217 -15 -18 -6 -117 14 -167 8 -18 17 -58 21
-88 4 -30 16 -73 27 -94 32 -63 48 -115 63 -210 13 -82 13 -92 -3 -125 -10
-21 -16 -56 -15 -86 1 -31 -4 -53 -13 -60 -11 -8 -12 -28 -4 -106 8 -86 7
-100 -9 -133 -17 -33 -18 -39 -4 -66 8 -17 21 -30 28 -30 17 0 45 39 45 63 0
10 5 28 11 39 18 33 29 3 28 -77 0 -107 -23 -218 -53 -258 -14 -18 -30 -55
-35 -83 -6 -27 -27 -134 -47 -239 -61 -319 -90 -396 -214 -567 -54 -74 -86
-105 -98 -94 -3 4 15 50 40 104 72 153 90 214 76 252 l-9 25 -19 -25 c-11 -14
-20 -30 -20 -36 0 -14 -39 -64 -50 -64 -4 0 -11 10 -14 23 -6 21 -7 21 -23 -8
-9 -16 -22 -59 -28 -95 -7 -36 -29 -105 -50 -155 -21 -49 -40 -111 -43 -137
-4 -38 -8 -48 -23 -48 -25 0 -32 15 -33 72 -1 47 -18 68 -24 30 -2 -16 -11
-19 -42 -18 -34 0 -39 3 -34 19 3 10 -2 29 -10 42 -16 24 -15 27 30 84 48 62
63 106 64 184 0 58 19 106 63 157 18 21 44 60 57 87 24 46 25 57 26 233 0 102
-3 192 -8 201 -13 29 21 121 60 162 37 38 37 39 36 120 -2 92 -18 145 -64 212
-33 48 -50 55 -71 29 -31 -38 -51 56 -29 137 6 22 7 71 2 126 -7 80 -2 200 13
368 10 107 12 289 3 355 -8 64 -37 175 -65 256 -8 23 -30 59 -49 80 -18 21
-34 47 -34 56 0 29 -12 48 -30 48 -13 0 -19 11 -23 48 -3 26 -27 97 -54 157
-38 87 -59 121 -100 163 -29 29 -53 54 -53 56 0 2 21 -2 46 -10 26 -7 50 -11
55 -8 15 9 10 50 -8 66 -65 59 -93 94 -132 166 -49 92 -78 126 -121 141 -25 8
-39 5 -87 -19 -70 -36 -71 -36 -100 -8 -29 27 -49 18 -74 -30 -23 -44 -29 -24
-29 91 0 51 -3 102 -6 114 -4 15 -30 35 -79 60 l-73 37 -23 -19 c-12 -11 -30
-39 -39 -61 -26 -60 -37 -61 -49 -4 -12 55 -37 108 -73 156 -19 25 -28 29 -48
23 -14 -4 -33 -7 -44 -8 -15 -1 -16 2 -6 14 19 23 -25 98 -102 171 -70 66
-321 386 -376 480 -4 6 -31 26 -59 44 -53 32 -57 37 -54 76 2 23 -51 67 -159
134 -32 19 -76 48 -98 63 -40 28 -124 56 -152 50 -8 -2 -24 -20 -35 -41 -21
-37 -31 -41 -72 -28 -20 6 -23 4 -23 -18 0 -41 -21 -42 -54 -3 -17 21 -34 37
-38 37 -4 0 -18 11 -31 24 -17 17 -32 23 -46 19 -20 -5 -91 -78 -91 -93 0 -18
-108 -119 -144 -134 -61 -25 -66 -23 -61 32 3 26 3 41 -1 35 -3 -7 -10 -13
-15 -13 -6 0 -22 -11 -37 -25 -34 -32 -59 -32 -74 0 -9 21 -7 33 15 75 32 61
26 83 -28 113 -53 30 -53 52 0 52 56 0 95 39 82 80 -7 19 -6 34 1 45 8 13 7
23 -5 40 -15 22 -17 22 -29 5 -12 -16 -15 -16 -37 -2 -12 8 -43 33 -67 56 -24
22 -47 38 -51 36 -4 -3 -1 -31 7 -63 46 -193 -29 -148 -112 66 -46 122 -66
156 -110 182 -40 25 -64 20 -64 -13 0 -37 -10 -38 -38 -5 -35 42 -72 55 -172
63 -47 4 -114 13 -150 20 -81 16 -124 10 -153 -22 -61 -68 -51 -64 -140 -57
-46 4 -89 13 -98 20 -8 8 -22 14 -30 14 -9 0 -22 15 -30 33 -13 29 -18 32 -59
32 -34 -1 -57 -9 -93 -33 -62 -44 -125 -71 -147 -65 -17 4 -26 22 -44 75 -3
10 -22 25 -43 33 l-38 16 25 19 25 20 -35 0 c-37 0 -117 -27 -137 -46 -7 -7
-13 -19 -13 -27 0 -23 -183 -21 -225 1 -23 12 -60 16 -161 17 -116 0 -134 -2
-153 -19 -25 -22 -27 -72 -6 -100 8 -11 15 -32 15 -47 0 -36 15 -40 87 -21 44
12 67 13 83 6 21 -9 18 -12 -35 -32 -32 -13 -68 -32 -79 -42 -12 -11 -49 -46
-84 -78 -85 -76 -102 -106 -102 -175 0 -46 -5 -61 -25 -82 l-24 -27 -6 29
c-13 56 -17 60 -31 28 -7 -16 -13 -40 -14 -53 0 -26 34 -158 57 -220 23 -61 9
-70 -58 -39 -36 17 -64 23 -85 20 -45 -7 -50 12 -9 37 38 23 44 45 20 76 -17
23 -19 87 -4 116 14 26 14 90 -1 117 -18 35 -49 45 -72 24 l-21 -18 6 64 c4
47 1 76 -10 104 l-16 40 33 30 c42 37 29 47 -60 47 -51 -1 -73 -6 -105 -25
-56 -35 -78 -33 -70 4 5 25 3 29 -19 35 -14 3 -45 1 -68 -5 -24 -7 -75 -11
-114 -10 -59 2 -73 -1 -88 -18 -18 -20 -18 -21 11 -48 l29 -27 -40 -20 c-36
-19 -41 -25 -43 -60 -3 -47 -6 -51 -31 -37 -12 6 -39 11 -61 11 -46 0 -50 10
-26 56 8 16 15 41 15 55 0 15 14 42 35 65 37 41 43 60 23 66 -10 4 -10 10 -1
31 24 51 91 57 160 15 29 -17 38 -18 70 -8 44 14 73 37 73 57 0 20 46 90 94
142 23 25 53 63 66 83 14 21 40 45 58 53 17 9 32 20 32 24 0 5 15 12 33 15 40
9 104 42 151 80 34 27 44 29 169 37 136 8 216 26 351 77 59 22 82 38 136 95
35 37 68 67 73 67 4 0 5 -20 1 -45z m1126 -155 c0 -11 -7 -20 -15 -20 -8 0
-15 9 -15 20 0 11 7 20 15 20 8 0 15 -9 15 -20z m-2647 -600 c-12 -10 -28 -29
-36 -41 -15 -20 -37 -19 -37 2 0 17 52 59 73 59 21 0 21 0 0 -20z m2760 -527
c10 -13 25 -23 32 -23 29 0 64 -23 69 -46 4 -14 28 -38 61 -59 51 -32 55 -37
44 -57 -10 -18 -7 -25 25 -55 20 -19 34 -39 30 -44 -3 -6 1 -21 10 -34 9 -13
16 -33 16 -43 0 -16 -35 -109 -46 -121 -2 -2 -30 -4 -63 -5 -53 -1 -58 1 -50
16 5 10 18 22 28 27 23 13 51 70 51 105 0 20 -9 30 -41 46 -27 14 -45 33 -55
55 -17 41 -39 54 -101 60 -27 2 -62 7 -79 10 -26 6 -35 2 -67 -34 -20 -23 -41
-41 -46 -41 -20 0 11 58 54 100 53 52 57 70 14 70 -23 0 -43 -12 -80 -47 l-49
-48 -5 -375 c-3 -206 -25 -1338 -50 -2515 -76 -3638 -83 -3886 -111 -3968 -13
-38 -20 -47 -33 -42 -14 6 -121 24 -143 25 -5 0 -8 26 -8 58 0 53 4 62 35 98
40 45 43 54 15 47 -11 -3 -20 -9 -20 -14 0 -5 -30 -22 -67 -39 -58 -26 -68
-28 -75 -15 -14 23 -47 18 -78 -14 -32 -31 -40 -25 -40 30 0 30 -3 32 -53 44
-20 4 -33 16 -43 40 -10 24 -28 42 -62 60 -26 13 -55 31 -66 39 -19 16 -14 36
10 36 8 0 14 4 14 9 0 12 -29 41 -41 41 -5 0 -9 9 -9 19 0 34 -11 51 -34 51
-11 1 -32 7 -46 15 l-25 13 25 10 c28 11 55 53 47 74 -4 10 -6 10 -6 -2 -2
-24 -66 -63 -92 -55 l-22 7 21 -27 c12 -15 22 -32 22 -36 0 -16 -33 -9 -55 11
-18 17 -25 18 -53 8 -25 -10 -39 -9 -67 1 -20 7 -48 10 -64 6 -18 -4 -44 0
-67 10 -22 9 -59 21 -84 25 -142 28 -166 35 -173 47 -4 7 -23 13 -41 13 -19 0
-47 7 -62 15 -16 8 -36 15 -44 15 -8 0 -24 7 -34 15 -11 8 -28 15 -38 15 -19
0 -92 71 -338 330 -80 84 -165 172 -189 196 l-43 43 21 36 c26 45 26 46 -4 32
-14 -7 -25 -15 -25 -19 0 -18 -26 -5 -67 32 l-44 41 -39 -40 c-61 -61 -106
-92 -124 -85 -12 5 -13 10 -5 26 14 26 46 64 92 108 l37 37 -146 144 c-80 79
-159 156 -174 172 -52 51 -56 29 -4 -28 19 -22 47 -57 61 -77 14 -21 32 -38
39 -38 8 0 14 -10 14 -22 l-1 -23 -22 25 c-25 27 -64 53 -114 76 -18 8 -33 21
-33 29 0 8 -6 18 -13 22 -22 14 -96 173 -81 173 8 0 14 7 14 15 0 8 7 15 15
15 14 0 134 58 145 70 3 3 97 52 210 109 113 57 232 117 266 135 33 17 81 40
105 51 24 10 51 24 59 31 23 19 32 8 79 -89 24 -49 66 -122 93 -164 60 -88
232 -265 301 -307 26 -17 47 -34 47 -38 0 -4 4 -8 10 -8 5 0 25 -11 45 -24 19
-13 70 -41 113 -61 42 -20 85 -40 94 -46 10 -5 46 -18 80 -30 35 -11 77 -27
93 -34 17 -7 55 -18 85 -24 30 -6 75 -16 100 -22 90 -21 137 -28 254 -38 66
-6 124 -15 129 -20 10 -10 -10 -887 -20 -904 -3 -5 -21 -7 -42 -5 -35 3 -36 2
-33 -27 7 -67 26 -78 154 -90 66 -6 66 -6 103 30 21 20 40 34 42 31 12 -12 -9
-54 -45 -91 -21 -22 -42 -48 -45 -59 -7 -16 -4 -18 25 -12 63 13 131 103 109
144 -18 33 -13 535 14 1712 3 135 12 574 20 975 9 402 20 935 25 1185 5 250
14 685 20 965 22 1083 41 1719 52 1732 13 16 50 17 101 2 32 -9 42 -8 56 5 10
9 21 16 24 16 4 0 17 9 29 19 68 58 69 58 147 57 66 -1 78 -4 94 -23z m-2173
-83 c0 -24 -44 -77 -81 -95 -15 -8 -41 -15 -56 -14 -24 0 -25 1 -8 8 11 5 45
35 75 68 56 60 70 67 70 33z m2630 -49 c0 -42 -15 -75 -45 -104 -30 -27 -65
-26 -65 2 0 9 -14 36 -31 59 -43 58 -23 80 41 47 23 -12 34 -13 55 -3 14 6 25
15 25 20 0 4 5 8 10 8 6 0 10 -13 10 -29z m-3360 -146 c0 -24 -43 -64 -164
-153 -51 -38 -97 -104 -144 -205 -42 -88 -44 -172 -7 -232 13 -22 25 -47 25
-56 0 -29 -42 -117 -58 -124 -39 -15 -80 104 -67 192 7 47 63 217 96 290 46
101 46 103 -17 105 -29 1 -42 -5 -61 -26 -12 -15 -23 -35 -23 -45 0 -49 -131
-334 -180 -391 -45 -52 -45 -53 -54 -75 -6 -14 -10 -16 -13 -7 -3 7 1 21 9 30
24 30 47 89 59 154 10 57 9 69 -10 119 -13 33 -36 69 -56 88 -21 18 -35 41
-35 54 0 32 44 71 120 108 36 17 88 50 115 74 65 55 105 75 166 82 45 5 51 4
56 -16 3 -11 9 -21 14 -21 17 0 22 32 8 41 -8 5 6 6 37 3 33 -4 54 -3 58 5 4
6 22 11 39 12 18 0 41 4 52 9 31 13 35 12 35 -15z m2180 -573 c0 -263 -13
-730 -20 -742 -4 -7 -62 -15 -147 -20 -149 -10 -276 -26 -308 -39 -11 -5 -49
-16 -85 -25 -66 -17 -78 -21 -185 -72 -69 -33 -153 -91 -208 -143 -47 -44
-114 -140 -123 -175 -3 -15 -10 -28 -14 -31 -15 -9 -38 -108 -45 -191 -22
-257 131 -456 445 -579 25 -10 59 -24 77 -31 17 -8 41 -14 53 -14 12 0 30 -5
41 -11 28 -14 159 -48 189 -49 14 0 45 -6 70 -14 25 -8 79 -19 120 -26 41 -6
80 -16 86 -23 8 -9 9 -133 2 -462 -5 -247 -11 -461 -14 -474 -6 -26 7 -26
-164 5 -41 8 -111 19 -155 24 -44 6 -91 14 -105 19 -14 5 -61 17 -105 26 -148
31 -321 78 -372 101 -17 8 -37 14 -45 14 -17 0 -100 29 -113 40 -5 4 -21 11
-35 15 -77 22 -282 125 -392 198 -100 66 -241 187 -294 254 -22 26 -45 55 -53
63 -46 48 -144 228 -181 330 -6 19 -16 44 -21 55 -5 11 -14 43 -20 70 -5 28
-14 70 -20 95 -19 90 -28 187 -29 301 0 136 16 363 29 399 5 14 19 59 31 100
12 41 25 84 30 95 5 11 16 38 25 60 9 22 21 47 26 55 5 8 13 25 18 36 17 40
97 162 137 210 145 176 363 345 579 448 33 15 72 35 87 42 14 8 31 14 38 14 6
0 35 11 63 24 29 12 72 29 97 36 25 6 61 18 80 25 19 7 67 21 105 30 39 9 86
20 105 25 33 9 86 18 230 42 63 10 256 22 413 26 l77 2 0 -158z m2457 70 c11
-6 35 -28 53 -49 41 -47 209 -222 237 -246 21 -18 22 -18 75 20 29 21 58 42
63 48 6 6 18 17 28 24 15 12 17 12 10 -5 -3 -10 -16 -28 -27 -39 -12 -11 -34
-38 -50 -60 -17 -22 -34 -42 -38 -46 -4 -3 12 -25 37 -49 25 -24 45 -50 45
-57 0 -8 11 -18 25 -23 21 -8 105 -83 105 -94 0 -3 12 -18 28 -34 15 -16 45
-50 67 -75 22 -26 48 -47 58 -47 19 0 19 -14 13 -537 -9 -719 -59 -3249 -72
-3643 l-6 -195 32 35 32 34 25 -29 c25 -28 25 -32 21 -149 -4 -95 -9 -122 -22
-131 -9 -7 -16 -22 -16 -34 0 -12 -7 -24 -15 -27 -8 -4 -16 -18 -16 -33 -2
-24 -2 -24 -6 -3 -3 13 1 30 8 39 29 34 2 213 -32 213 -17 0 -26 -264 -9 -275
15 -9 12 -46 -10 -109 l-19 -57 24 -9 c29 -11 86 4 108 28 8 9 23 42 33 72 9
30 21 59 25 65 5 5 9 19 9 30 0 26 53 138 84 180 13 17 25 37 29 45 3 8 6 -10
6 -41 1 -68 34 -180 67 -228 13 -20 24 -41 24 -47 0 -20 -41 -64 -60 -64 -25
0 -78 -34 -152 -97 -38 -32 -80 -57 -114 -68 -63 -20 -72 -28 -76 -80 -2 -33
-6 -40 -23 -38 -11 1 -213 5 -450 8 -236 3 -468 6 -515 7 l-85 3 3 255 c3 361
21 1429 27 1590 2 74 5 223 6 330 l2 195 -24 7 c-13 4 -345 14 -737 22 -393 8
-717 17 -720 20 -7 8 13 1004 21 1012 6 7 1029 -11 1308 -22 123 -5 148 -4
161 9 13 13 16 67 22 334 9 419 23 983 41 1593 8 272 15 505 15 518 l0 23 148
-4 c82 -3 158 -9 169 -15z m1980 -544 c-3 -8 -6 -5 -6 6 -1 11 2 17 5 13 3 -3
4 -12 1 -19z m-7927 -236 c0 -4 -18 -26 -39 -50 -48 -53 -86 -116 -96 -159 -3
-18 -11 -33 -17 -33 -19 0 0 84 36 163 l35 76 36 -6 c23 -4 35 -2 35 6 0 6 2
11 5 11 3 0 5 -3 5 -8z m-130 -356 c6 -6 16 -3 27 7 11 10 35 16 62 15 42 0
43 -1 37 -31 -3 -16 -1 -35 4 -42 8 -9 -4 -34 -44 -92 -53 -78 -54 -81 -61
-169 -9 -119 -19 -147 -76 -210 -54 -60 -64 -85 -63 -164 2 -115 24 -373 33
-384 6 -8 4 -23 -6 -45 -14 -28 -15 -36 -3 -55 8 -11 16 -60 20 -107 5 -74 10
-91 33 -119 23 -27 27 -41 27 -93 0 -35 7 -74 15 -91 20 -37 19 -46 -5 -46
-18 0 -19 -6 -14 -116 4 -75 1 -139 -7 -180 -10 -51 -10 -68 0 -87 8 -16 9
-30 2 -48 -12 -34 14 -174 63 -330 20 -64 36 -124 36 -134 0 -25 65 -244 97
-325 14 -36 34 -73 45 -83 15 -13 19 -25 15 -47 -4 -19 -2 -32 7 -37 7 -4 26
-32 42 -62 15 -29 34 -56 41 -58 7 -3 13 -11 13 -18 0 -6 23 -61 51 -120 56
-119 120 -192 203 -234 24 -11 60 -35 81 -51 50 -39 72 -39 83 2 l8 32 18 -47
c15 -40 16 -58 7 -135 -15 -139 -9 -161 64 -232 37 -35 72 -60 84 -60 12 0 24
-7 27 -15 10 -25 22 -17 36 27 8 23 19 43 25 45 6 2 27 -30 48 -72 35 -72 38
-76 64 -70 22 5 31 0 51 -27 13 -18 29 -37 37 -41 7 -4 13 -16 13 -26 0 -10
33 -52 73 -93 86 -87 137 -150 163 -198 10 -19 31 -51 47 -71 15 -20 27 -41
27 -46 0 -16 240 -239 336 -311 60 -45 107 -73 140 -81 27 -8 83 -24 126 -37
58 -18 84 -21 108 -14 17 5 38 6 46 3 17 -6 19 19 3 49 -30 55 49 19 115 -54
64 -69 108 -62 182 29 54 67 85 97 129 127 53 36 71 34 79 -9 8 -40 20 -43 56
-15 14 11 32 20 41 20 42 0 52 -63 18 -111 -29 -41 -19 -70 31 -91 26 -11 44
-26 50 -43 6 -15 29 -46 53 -69 23 -22 51 -59 61 -81 10 -22 29 -55 43 -72 21
-29 30 -33 71 -33 28 0 61 -8 82 -19 131 -73 181 -90 250 -90 65 1 128 -19
138 -43 7 -16 22 -7 22 13 0 17 5 20 24 17 14 -3 30 -2 36 2 7 4 33 1 59 -7
29 -9 92 -14 175 -14 121 0 133 -2 173 -26 37 -22 47 -23 75 -14 40 14 38 14
38 -9 0 -25 -2 -25 66 5 45 20 73 25 138 25 44 0 86 -4 92 -8 6 -4 14 -24 18
-46 6 -29 10 -36 19 -27 15 15 47 14 116 -5 55 -16 63 -16 110 0 68 22 71 21
64 -18 -7 -42 3 -45 161 -47 91 -1 122 3 141 15 41 27 46 47 24 95 -10 24 -19
52 -19 62 0 27 -23 33 -73 21 -23 -6 -69 -13 -102 -17 l-60 -6 25 20 c14 12
36 24 50 27 42 9 71 28 166 110 108 93 129 122 121 170 -7 40 9 94 32 111 13
9 18 7 29 -13 7 -14 17 -22 22 -19 15 9 11 47 -5 70 -10 12 -13 30 -9 50 3 20
-4 58 -20 107 -14 42 -26 81 -26 87 0 18 37 12 86 -14 26 -14 59 -25 75 -25
36 0 60 -10 53 -21 -3 -5 -14 -9 -24 -9 -10 0 -25 -9 -33 -21 -13 -18 -13 -27
-1 -75 13 -48 13 -60 -1 -99 -8 -25 -15 -60 -15 -77 0 -39 43 -114 70 -121 15
-4 20 -13 20 -37 0 -18 9 -43 20 -57 29 -37 26 -60 -10 -68 -29 -6 -60 -29
-60 -43 0 -4 34 -8 74 -9 76 -3 166 23 166 47 0 5 16 10 35 10 25 0 33 -4 29
-13 -3 -8 2 -20 11 -27 22 -19 70 -1 70 25 0 25 35 33 48 10 11 -20 67 -45
101 -45 14 0 30 10 39 24 15 23 15 25 -6 39 -19 12 -20 16 -8 31 7 9 19 16 27
16 23 0 37 40 31 93 l-6 49 26 -26 c22 -23 48 -32 76 -27 4 1 17 -3 27 -9 19
-10 19 -13 5 -47 -8 -19 -15 -46 -15 -59 0 -15 -14 -38 -36 -59 -37 -36 -40
-65 -8 -65 13 0 14 -3 5 -13 -8 -10 -6 -19 10 -35 11 -12 24 -22 30 -22 16 0
32 -47 25 -75 -8 -31 -48 -49 -93 -40 -31 6 -35 10 -47 67 -7 32 -69 59 -89
39 -8 -8 -14 -115 -19 -338 -4 -180 -12 -331 -17 -336 -5 -5 -30 -5 -56 -1
-35 5 -49 12 -53 26 -4 18 -6 18 -41 -4 -52 -32 -162 -31 -212 2 -55 36 -87
89 -105 176 -10 44 -21 83 -26 89 -13 15 -58 -37 -68 -81 -5 -21 -10 -74 -10
-116 l0 -78 -55 0 c-46 0 -57 3 -63 20 -7 20 -7 20 -45 0 -27 -15 -56 -20
-111 -20 -69 0 -78 3 -117 33 -31 23 -46 43 -52 70 -7 28 -14 37 -30 37 -35 0
-109 -50 -174 -116 -34 -35 -66 -64 -72 -64 -5 0 -12 -6 -15 -12 -4 -7 -4 1
-2 18 4 26 1 32 -25 41 -29 11 -33 16 -43 64 -5 24 -9 26 -38 20 -25 -5 -34
-13 -40 -39 -11 -40 -33 -46 -136 -38 -42 4 -89 8 -104 9 -29 2 -36 11 -18 22
6 3 7 17 4 30 -4 17 0 26 15 35 27 14 27 40 1 40 -11 0 -20 -6 -20 -14 0 -9
-8 -12 -24 -9 -38 8 -154 -51 -167 -84 -10 -26 -10 -26 -91 -20 -102 7 -115
17 -94 77 18 52 15 60 -27 61 -18 1 -43 4 -57 8 -29 9 -28 9 69 32 54 13 78
40 65 72 -7 19 -68 39 -98 31 -15 -3 -43 0 -66 10 -22 9 -67 16 -100 16 -75 0
-82 -12 -79 -123 2 -89 -8 -158 -25 -169 -6 -4 -27 -8 -46 -8 -19 0 -40 4 -46
8 -18 12 -33 93 -27 148 7 69 -8 96 -50 92 l-32 -3 -7 -107 c-3 -59 -9 -112
-13 -118 -3 -5 -32 -10 -64 -10 -57 0 -59 1 -65 31 -3 17 -6 58 -6 90 0 33 -2
59 -4 59 -1 0 -17 -5 -35 -11 -21 -8 -33 -19 -37 -37 -3 -15 -10 -37 -15 -50
-5 -13 -9 -33 -9 -46 0 -54 -114 -48 -132 6 -4 10 -13 10 -43 1 -22 -7 -41
-10 -44 -7 -8 8 27 67 65 110 36 41 42 75 22 119 -6 14 -18 25 -27 26 -10 0
-12 2 -4 6 19 7 16 60 -3 67 -20 8 -98 8 -118 0 -12 -5 -16 -20 -16 -63 0 -31
4 -63 10 -71 6 -9 5 -17 -3 -22 -7 -4 -14 -45 -17 -100 l-5 -93 -65 0 -65 0
-5 142 c-3 78 -8 144 -12 148 -16 16 -89 16 -139 0 -30 -10 -56 -20 -59 -22
-3 -3 -7 -62 -10 -131 l-5 -127 -60 0 -60 0 -3 112 c-3 132 -12 146 -68 120
-19 -10 -45 -17 -57 -17 -13 0 -32 -7 -43 -15 -28 -21 -86 -19 -107 5 -14 17
-29 20 -97 20 -79 0 -80 0 -80 -25 0 -14 13 -39 28 -56 49 -55 162 -49 187 10
9 21 14 23 67 18 76 -7 81 -11 57 -51 -29 -50 -67 -85 -118 -108 -38 -17 -59
-20 -128 -15 -101 6 -152 35 -200 117 -31 50 -33 61 -33 142 0 68 5 98 19 127
25 48 89 110 121 118 14 3 30 10 37 15 6 5 52 12 102 15 80 5 91 4 91 -11 0
-9 4 -16 9 -16 5 0 32 -15 60 -33 35 -22 51 -39 51 -54 0 -26 20 -73 31 -73 4
0 21 11 36 25 27 24 28 25 9 40 -11 8 -30 15 -43 15 -39 0 -27 28 17 40 24 6
40 17 40 26 0 19 -8 22 -113 33 -61 6 -94 14 -108 27 -25 23 -106 45 -137 37
-12 -3 -37 2 -55 10 -23 10 -70 15 -160 16 -119 1 -128 -1 -122 -17 13 -31 22
-77 18 -89 -8 -22 -110 -17 -129 6 -69 82 -68 81 -140 81 -56 0 -72 -4 -91
-22 -29 -27 -29 -50 0 -83 22 -25 117 -65 159 -65 13 -1 57 -18 98 -38 97 -48
120 -80 120 -169 0 -118 -64 -190 -190 -211 -74 -13 -178 1 -240 33 -73 36
-120 101 -123 167 l-2 33 62 3 61 3 22 -40 c37 -65 70 -82 152 -82 87 0 118
22 118 82 0 47 -27 70 -108 94 -160 47 -196 61 -231 92 -50 42 -65 94 -54 187
l8 69 50 27 c96 52 205 72 301 55 56 -10 66 9 17 30 -21 9 -52 17 -70 17 -19
0 -54 14 -85 33 -29 18 -56 31 -61 28 -14 -8 -139 18 -175 37 l-33 18 53 8
c29 5 69 7 88 6 l35 -3 -32 30 c-27 25 -41 30 -78 29 -53 -1 -74 12 -50 32 22
18 18 37 -7 38 -13 0 -97 35 -188 79 -178 87 -213 99 -335 118 -224 36 -243
62 -59 83 67 8 112 8 135 2 41 -12 89 -13 89 -2 0 4 -29 27 -65 50 -36 24 -65
47 -65 53 0 5 -11 9 -24 9 -13 0 -54 21 -92 46 -99 66 -97 64 -79 84 14 15 13
19 -11 41 -14 13 -34 38 -45 56 -11 18 -57 62 -102 99 -45 37 -116 101 -158
142 -44 42 -105 90 -144 111 -37 20 -75 47 -84 60 l-15 24 97 -7 c91 -7 97 -6
97 12 0 36 -33 84 -121 178 -49 52 -96 109 -105 127 -9 17 -27 46 -39 62 -46
63 -64 100 -55 115 6 10 14 7 35 -19 27 -31 28 -31 42 -12 19 27 8 84 -24 135
-29 45 -117 136 -132 136 -12 0 -86 89 -106 126 -14 28 -14 28 17 39 l32 10
-3 75 c-1 41 -9 103 -17 138 -17 78 -17 82 1 82 11 0 15 11 15 41 0 71 -21
130 -60 169 -25 25 -39 50 -44 76 -3 21 -9 54 -12 73 -7 33 -6 34 22 26 57
-15 59 -14 62 42 2 33 -5 78 -18 119 -23 76 -35 94 -60 94 -19 0 -30 19 -30
53 0 12 -9 38 -20 57 -53 94 -63 121 -81 219 -10 58 -19 119 -19 135 0 28 1
29 15 10 14 -19 15 -19 34 5 18 23 19 23 42 7 24 -16 24 -16 36 26 6 24 19 63
28 88 9 25 19 80 22 122 6 75 5 77 -16 71 -19 -5 -21 -3 -16 20 9 34 -19 129
-45 152 -17 15 -23 16 -51 5 -18 -8 -43 -32 -59 -58 -36 -57 -44 -43 -35 61
12 139 22 179 55 210 26 25 28 30 18 58 -9 26 -8 33 6 41 9 5 16 19 16 32 0
39 30 202 66 354 48 202 48 202 35 202 -7 0 -1 10 14 23 14 12 44 50 68 83
115 168 236 311 237 281 0 -22 -21 -64 -69 -137 -51 -77 -109 -200 -137 -290
-19 -62 -19 -211 0 -204 17 7 43 65 56 129 16 73 43 155 51 155 4 0 10 14 14
30 9 39 25 39 25 -1 0 -19 4 -28 11 -23 6 3 9 24 7 48 -3 33 4 58 38 126 22
47 45 96 49 110 4 14 16 41 26 60 11 19 19 38 19 43 0 4 8 20 18 35 l17 26 3
-49 c2 -28 7 -54 12 -59z m7896 -3214 c-11 -10 -12 3 -7 53 l6 50 3 -49 c2
-26 1 -51 -2 -54z m-29 -54 c-3 -7 -5 -2 -5 12 0 14 2 19 5 13 2 -7 2 -19 0
-25z m-4653 -1500 c35 -63 36 -67 17 -73 -11 -3 -35 1 -54 9 -30 12 -39 12
-62 0 -37 -19 -44 -18 -51 10 -7 30 8 60 54 109 42 43 42 43 96 -55z m2621 -8
c-3 -5 -12 -10 -18 -10 -7 0 -28 -23 -47 -51 -19 -28 -40 -56 -46 -62 -6 -7
-16 -26 -22 -42 l-10 -30 -1 32 c-1 42 32 118 65 148 26 24 92 37 79 15z
m-195 -436 c0 -31 -2 -35 -15 -24 -25 21 -19 49 13 59 1 1 2 -15 2 -35z m704
-265 c-16 -18 -54 -27 -54 -12 0 4 15 22 33 41 30 31 32 32 35 12 2 -12 -4
-30 -14 -41z m185 -106 l24 -6 -4 -285 -4 -285 29 -8 c36 -10 46 -24 46 -66 0
-27 -4 -32 -31 -38 -45 -10 -113 3 -137 25 -12 11 -24 36 -28 56 -4 20 -5 162
-2 316 4 226 8 282 19 289 16 10 54 11 88 2z m-231 -185 c13 -13 16 -405 3
-463 -6 -29 -8 -30 -61 -30 l-55 0 3 235 c2 129 6 243 8 253 4 13 16 17 48 17
23 0 47 -5 54 -12z"/>
<path d="M4788 10309 c-35 -18 -47 -37 -32 -52 10 -10 72 25 77 44 7 28 -3 29
-45 8z"/>
<path d="M4245 10170 c-22 -11 -50 -20 -62 -20 -28 0 -38 -21 -24 -48 8 -16 7
-25 -8 -43 -19 -23 -20 -23 -55 -7 -35 17 -36 17 -63 -6 l-28 -24 20 -38 c11
-22 18 -51 16 -66 -2 -22 2 -28 17 -28 10 0 27 9 37 20 9 10 41 24 70 30 66
14 145 64 145 92 0 12 7 26 16 32 16 12 38 101 28 117 -9 16 -68 10 -109 -11z"/>
<path d="M4524 10123 c-5 -19 -2 -30 11 -40 24 -17 28 -17 56 7 l24 20 -25 20
c-35 27 -58 25 -66 -7z"/>
<path d="M6994 9819 c-35 -10 -43 -28 -34 -74 3 -20 15 -34 34 -44 26 -12 38
-12 100 4 39 10 82 23 95 30 l25 13 -35 18 c-66 35 -131 64 -142 63 -7 0 -26
-5 -43 -10z"/>
<path d="M7073 9456 c4 -10 -2 -16 -16 -18 -17 -2 -26 -17 -43 -68 -12 -36
-20 -66 -19 -68 2 -2 27 4 57 13 43 12 61 24 84 55 16 23 39 52 52 66 12 14
22 27 22 30 0 2 -32 4 -71 4 -58 0 -70 -3 -66 -14z"/>
<path d="M9425 9170 c3 -5 10 -10 16 -10 5 0 9 5 9 10 0 6 -7 10 -16 10 -8 0
-12 -4 -9 -10z"/>
<path d="M10020 7587 c0 -15 27 -74 43 -95 8 -10 14 -9 28 4 28 25 23 48 -15
78 -38 29 -56 33 -56 13z"/>
<path d="M10050 5271 c0 -11 5 -23 10 -26 6 -4 10 5 10 19 0 14 -4 26 -10 26
-5 0 -10 -9 -10 -19z"/>
<path d="M6047 9238 c-19 -15 -78 -101 -72 -106 2 -2 12 5 23 15 11 10 32 29
46 42 36 32 51 61 33 61 -7 0 -21 -6 -30 -12z"/>
<path d="M3130 4070 c0 -5 5 -10 11 -10 5 0 7 5 4 10 -3 6 -8 10 -11 10 -2 0
-4 -4 -4 -10z"/>
<path d="M3175 4010 c3 -5 10 -10 16 -10 5 0 9 5 9 10 0 6 -7 10 -16 10 -8 0
-12 -4 -9 -10z"/>
<path d="M5265 2920 c-4 -6 3 -10 14 -10 25 0 27 6 6 13 -8 4 -17 2 -20 -3z"/>
<path d="M5266 2765 c-7 -21 3 -45 20 -45 18 0 17 20 0 43 -12 15 -14 16 -20
2z"/>
<path d="M5761 2602 c0 -8 -29 -40 -63 -73 -34 -32 -59 -62 -55 -65 4 -4 18 5
31 19 14 15 30 27 36 27 5 0 10 7 10 15 0 8 7 15 15 15 8 0 15 6 15 14 0 8 5
16 11 18 6 2 9 13 6 23 -2 11 -5 14 -6 7z"/>
<path d="M8349 7966 c-11 -20 -25 -36 -30 -36 -5 0 -9 -4 -9 -10 0 -17 18 -11
60 18 41 28 48 54 17 60 -11 2 -24 -9 -38 -32z"/>
<path d="M8390 2649 c0 -5 5 -7 10 -4 6 3 10 8 10 11 0 2 -4 4 -10 4 -5 0 -10
-5 -10 -11z"/>
<path d="M1504 5688 c-4 -7 -10 -50 -12 -95 -5 -88 4 -113 39 -113 17 0 19 8
19 68 0 99 -25 174 -46 140z"/>
<path d="M1500 5390 c0 -22 3 -40 8 -40 4 0 6 18 4 40 -2 22 -6 40 -8 40 -2 0
-4 -18 -4 -40z"/>
<path d="M1543 5267 c-5 -6 -15 -41 -22 -76 -12 -61 -11 -64 10 -87 21 -22 24
-23 41 -7 21 19 23 63 7 129 -13 49 -22 60 -36 41z"/>
<path d="M1725 4290 c3 -5 8 -10 11 -10 2 0 4 5 4 10 0 6 -5 10 -11 10 -5 0
-7 -4 -4 -10z"/>
<path d="M1621 4219 c-38 -35 -28 -64 40 -114 55 -41 100 -57 99 -37 -1 4 -17
40 -38 81 -42 84 -67 102 -101 70z"/>
<path d="M2608 3753 c-22 -6 -23 -17 -1 -54 21 -35 27 -36 41 -4 9 20 9 30 0
45 -7 11 -15 19 -18 19 -3 -1 -13 -3 -22 -6z"/>
<path d="M4602 2343 c-12 -10 -22 -27 -24 -38 -2 -16 2 -20 27 -19 54 3 85 21
85 49 0 22 -4 25 -34 25 -19 0 -43 -8 -54 -17z"/>
<path d="M4823 2156 c-17 -36 -13 -66 9 -66 7 0 28 9 46 20 25 15 32 27 32 50
0 28 -3 30 -35 30 -30 0 -38 -5 -52 -34z"/>
<path d="M7456 1864 c-4 -10 -2 -22 3 -27 7 -7 13 -5 17 7 4 10 2 22 -3 27 -7
7 -13 5 -17 -7z"/>
<path d="M7945 1810 c3 -5 12 -10 20 -10 8 0 17 5 20 10 4 6 -5 10 -20 10 -15
0 -24 -4 -20 -10z"/>
<path d="M7605 1770 c-27 -10 -64 -19 -81 -19 -47 -1 -138 -78 -150 -127 -6
-24 14 -70 42 -96 18 -15 23 -15 78 8 66 27 78 39 70 70 -8 32 16 46 54 32 28
-11 34 -10 57 12 28 26 26 45 -6 91 -14 20 -15 29 -7 37 16 16 3 14 -57 -8z"/>
<path d="M7822 1694 c-22 -27 -32 -50 -28 -61 6 -17 58 -53 77 -53 14 0 10
122 -4 141 -11 14 -16 11 -45 -27z"/>
<path d="M3954 1591 c-25 -7 -74 -45 -74 -58 0 -18 204 -31 214 -14 9 15 -4
41 -28 53 -29 16 -87 25 -112 19z"/>
<path d="M7684 1476 c-66 -69 -72 -158 -15 -226 23 -28 35 -34 82 -38 44 -3
59 0 80 17 82 64 76 224 -9 274 -53 30 -90 23 -138 -27z"/>
<path d="M5145 1458 c-17 -41 -2 -53 44 -37 25 9 31 16 31 40 0 26 -4 29 -30
29 -25 0 -33 -6 -45 -32z"/>
<path d="M6887 1412 c-27 -30 -21 -42 14 -32 34 10 59 27 59 41 0 17 -57 9
-73 -9z"/>
<path d="M6101 1364 c0 -11 3 -14 6 -6 3 7 2 16 -1 19 -3 4 -6 -2 -5 -13z"/>
<path d="M7170 1313 c-71 -7 -103 -50 -62 -85 31 -28 59 -30 106 -10 48 22 71
52 61 82 -7 21 -9 21 -105 13z"/>
</g>
</svg>
