<?xml version="1.0" standalone="no"?>
<!DOCTYPE svg PUBLIC "-//W3C//DTD SVG 20010904//EN"
 "http://www.w3.org/TR/2001/REC-SVG-20010904/DTD/svg10.dtd">
<svg version="1.0" xmlns="http://www.w3.org/2000/svg"
 width="500.000000pt" height="500.000000pt" viewBox="0 0 500.000000 500.000000"
 preserveAspectRatio="xMidYMid meet">

<g transform="translate(0.000000,500.000000) scale(0.100000,-0.100000)"
fill="#000000" stroke="none">
<path d="M0 2500 l0 -2500 2500 0 2500 0 0 2500 0 2500 -2500 0 -2500 0 0
-2500z m2143 1970 c-6 -24 31 -36 71 -21 15 6 39 11 53 11 25 0 25 -1 9 -25
-9 -14 -15 -25 -13 -25 3 0 34 14 70 30 87 39 99 39 84 1 -6 -17 -14 -28 -17
-26 -4 3 -16 -2 -26 -10 -17 -12 -9 -13 64 -10 45 2 87 7 94 11 7 5 8 3 3 -6
-6 -9 -4 -11 5 -5 7 4 40 7 74 6 34 0 71 4 83 11 70 41 103 57 103 51 0 -3
-19 -23 -42 -45 l-41 -38 44 0 c25 0 50 -5 57 -12 17 -17 28 -2 12 17 -19 23
5 19 39 -6 27 -20 30 -20 75 -5 26 9 60 16 76 16 16 0 41 5 57 10 23 9 20 3
-22 -34 -27 -25 -44 -45 -36 -46 8 0 39 -12 69 -26 31 -15 66 -27 79 -28 13 0
23 -4 23 -7 0 -4 56 -6 125 -5 69 0 125 0 125 -2 0 -10 -76 -32 -112 -33 -50
0 -39 -7 60 -35 43 -12 59 -21 52 -28 -7 -7 7 -17 43 -32 33 -14 54 -19 58
-12 4 6 15 2 28 -11 11 -11 25 -21 30 -21 13 0 31 25 41 57 8 24 9 23 6 -13
-5 -48 -1 -55 37 -72 20 -8 34 -9 47 -2 16 8 18 8 14 -5 -4 -8 -2 -15 3 -15 5
0 20 -15 33 -32 l23 -33 -25 23 c-36 33 -44 27 -13 -10 31 -37 46 -47 77 -53
40 -8 39 -22 -3 -23 -49 -2 -59 -7 -59 -31 0 -19 71 -91 110 -112 l25 -14 -39
-5 -39 -5 41 -48 c43 -50 54 -70 26 -46 -15 12 -16 11 -10 -11 14 -46 64 -134
82 -145 30 -17 63 -59 52 -66 -15 -10 -2 -143 19 -186 9 -20 16 -55 15 -77 -1
-23 2 -50 7 -61 24 -54 51 -159 42 -164 -5 -3 -9 -40 -9 -81 0 -41 -1 -79 -2
-85 -9 -38 15 -48 30 -12 7 19 9 17 9 -16 1 -22 -5 -53 -13 -70 -8 -18 -22
-75 -31 -128 -16 -93 -45 -172 -79 -214 -13 -16 -12 -8 4 34 12 30 19 66 17
80 -3 26 -4 26 -16 -6 -8 -20 -18 -30 -26 -26 -9 3 -16 -5 -20 -24 -22 -103
-63 -196 -49 -110 5 31 5 31 -11 12 -13 -17 -17 -18 -25 -5 -6 10 -3 25 11 46
10 17 19 44 19 58 0 15 12 47 26 71 24 41 25 51 20 125 -5 72 -4 82 14 97 26
23 26 68 -1 117 -12 23 -18 48 -15 62 3 12 2 26 -4 29 -6 4 -10 -6 -10 -24 0
-17 -5 -31 -12 -31 -8 0 -10 44 -5 168 7 187 0 237 -42 297 -36 53 -65 131
-66 178 -1 28 -8 44 -27 60 -14 12 -35 36 -47 54 -25 36 -56 50 -76 33 -8 -6
-20 -8 -26 -4 -7 4 -18 -1 -26 -11 -12 -17 -13 -14 -13 28 0 41 -3 48 -29 61
-30 16 -51 7 -51 -23 0 -9 -11 6 -24 32 -13 27 -27 44 -31 38 -9 -15 -25 -14
-25 2 0 7 -16 29 -36 48 -20 18 -58 66 -85 106 -27 39 -57 74 -68 78 -10 3
-21 13 -23 23 -7 23 -106 90 -146 98 -28 6 -32 4 -32 -15 0 -19 -3 -20 -20
-11 -16 9 -20 8 -20 -6 0 -14 -4 -12 -21 7 l-21 24 -40 -47 c-41 -49 -79 -67
-58 -28 6 11 17 20 25 20 8 0 15 4 15 10 0 5 10 18 22 30 l22 20 -36 0 c-33 0
-38 -4 -57 -44 -11 -25 -25 -47 -30 -50 -16 -10 -23 12 -11 34 6 11 12 39 13
60 1 39 6 44 43 43 6 0 11 7 10 15 0 9 8 18 19 20 36 7 38 20 6 40 -41 25 -81
18 -81 -14 0 -13 8 -28 18 -33 10 -7 12 -11 4 -11 -7 0 -30 12 -50 27 l-37 27
24 -27 c28 -31 18 -37 -14 -7 l-22 20 5 -30 c6 -45 -5 -36 -32 24 -26 59 -34
67 -74 71 -150 17 -168 18 -185 1 -20 -20 -97 -20 -97 1 0 20 -39 16 -67 -7
-33 -26 -46 -25 -59 5 -9 18 -9 25 0 29 6 2 -2 5 -19 5 -16 1 -43 -6 -60 -15
-22 -11 -45 -13 -92 -8 -81 8 -113 0 -113 -29 0 -38 14 -50 51 -42 l34 6 -33
-21 c-50 -31 -81 -71 -82 -105 -1 -26 -2 -27 -11 -12 -6 9 -14 15 -20 12 -14
-9 -11 -48 7 -90 16 -40 13 -55 -9 -36 -8 6 -23 8 -33 5 -18 -6 -18 -6 1 9 16
12 17 17 6 30 -7 9 -10 25 -6 37 9 29 -3 73 -18 67 -19 -7 -14 58 6 80 18 21
23 43 8 43 -5 0 -11 -9 -14 -20 -3 -14 -14 -20 -32 -20 -14 0 -36 -5 -47 -11
-18 -10 -20 -9 -15 5 6 14 -2 16 -53 14 -59 -3 -88 -22 -54 -35 15 -5 15 -7 0
-15 -9 -5 -16 -15 -16 -23 0 -8 -7 -11 -20 -8 -16 4 -19 11 -14 32 4 14 11 30
15 36 5 5 9 17 9 27 0 20 12 23 41 7 23 -12 59 -3 59 14 0 7 16 32 36 57 41
51 142 110 190 110 52 0 142 35 165 64 24 31 29 32 22 6z m-543 -284 c0 -3 -4
-8 -10 -11 -5 -3 -10 -1 -10 4 0 6 5 11 10 11 6 0 10 -2 10 -4z m1045 -199
c11 -12 19 -25 17 -30 -1 -4 5 -10 14 -14 38 -14 39 -93 1 -93 -16 0 -18 3 -9
12 47 47 -61 133 -113 90 -16 -13 -15 -11 3 9 12 14 22 28 22 32 0 14 -27 7
-44 -11 -15 -18 -16 -111 -16 -1211 0 -655 -3 -1209 -6 -1231 -5 -33 -11 -40
-29 -40 -32 0 -36 9 -18 37 9 13 17 38 18 54 l2 29 -34 -35 c-41 -42 -44 -59
-3 -20 17 16 30 24 30 18 0 -18 -59 -63 -75 -56 -9 3 -22 0 -30 -7 -12 -10
-15 -9 -15 4 0 9 -7 16 -15 16 -8 0 -15 6 -15 13 0 8 -12 19 -26 25 -14 7 -22
17 -19 23 4 5 -4 21 -18 33 -14 13 -22 27 -17 32 4 5 11 20 14 34 7 24 6 24
-9 -2 -9 -16 -24 -28 -35 -28 -10 0 -21 -4 -24 -8 -6 -10 -49 -9 -118 3 -53 8
-53 8 -37 38 12 22 12 22 -9 3 -26 -22 -13 -32 -160 114 l-113 111 17 27 c17
27 17 27 -3 9 -20 -18 -53 -14 -53 6 0 6 -20 -9 -45 -33 -25 -24 -45 -40 -45
-34 0 6 16 25 35 44 l35 34 -42 39 c-24 22 -64 56 -91 77 l-47 38 52 30 c29
16 92 50 139 76 l86 46 37 -59 c98 -160 245 -235 514 -261 5 0 2 -330 -4 -330
-3 0 -14 5 -25 10 -16 9 -17 14 -7 33 10 20 10 21 -5 8 -23 -18 -21 -35 6 -64
29 -32 76 -40 101 -19 15 13 18 14 11 2 -4 -8 -15 -23 -23 -32 -13 -16 -13
-18 0 -18 9 0 28 16 42 35 17 22 21 32 11 29 -13 -6 -15 117 -15 1180 l0 1186
24 0 c13 0 33 3 43 7 17 6 17 6 1 -14 -29 -33 -20 -39 12 -8 29 28 41 53 18
39 -6 -4 -8 -3 -5 3 10 17 88 -4 112 -30z m-835 -32 c-7 -8 -17 -15 -23 -15
-5 0 -2 9 8 20 21 23 35 19 15 -5z m960 19 c0 -1 -3 -9 -6 -18 -8 -22 -27 -20
-41 3 -11 18 -10 20 17 19 17 -1 30 -2 30 -4z m-1294 -104 c8 0 14 5 14 10 0
6 15 10 33 10 l32 -1 -38 -31 c-44 -35 -79 -98 -77 -136 0 -15 2 -42 3 -61 2
-41 -18 -53 -27 -16 -8 30 8 93 35 147 23 45 23 48 2 48 -22 0 -53 -29 -53
-49 0 -9 -11 -38 -24 -66 l-24 -50 -1 35 c-1 19 -8 49 -17 65 -14 28 -14 31 2
40 9 6 29 20 44 32 34 28 74 44 78 32 2 -5 10 -9 18 -9z m874 -265 c0 -188 11
-168 -102 -179 -72 -8 -153 -38 -208 -77 -72 -52 -109 -167 -79 -246 30 -79
149 -144 309 -168 87 -13 80 4 80 -191 l0 -174 -22 5 c-13 2 -68 12 -123 21
-124 20 -303 79 -380 124 -77 46 -158 129 -190 195 -41 83 -55 151 -55 265 0
123 25 209 86 297 106 153 324 259 584 283 47 4 88 8 93 9 4 0 7 -73 7 -164z
m843 106 c19 -20 53 -54 75 -75 35 -34 43 -37 57 -26 14 12 8 21 -52 82 -37
37 -63 68 -58 68 5 0 37 -28 72 -62 53 -52 64 -59 77 -48 18 14 22 0 6 -16 -7
-7 13 -34 65 -84 41 -41 75 -79 75 -84 0 -6 -36 25 -79 68 -70 70 -82 78 -96
66 -15 -13 -15 -15 5 -30 19 -15 20 -18 6 -29 -9 -8 -16 -18 -16 -24 0 -5 8
-3 18 6 17 16 21 15 53 -8 18 -14 39 -36 46 -49 7 -13 24 -27 38 -30 l25 -6
-2 -765 c-3 -690 -1 -763 12 -744 9 11 19 17 23 13 10 -11 8 -97 -3 -114 -7
-11 -10 -6 -10 22 0 20 -5 40 -11 43 -7 5 -10 -15 -8 -64 2 -46 -1 -75 -9 -83
-17 -17 -15 -27 6 -23 9 2 22 4 29 4 15 1 30 28 37 63 2 15 11 38 19 53 l14
28 11 -45 c7 -25 15 -53 18 -63 5 -13 3 -16 -7 -13 -8 3 -22 -6 -32 -19 -11
-13 -36 -32 -58 -43 -26 -14 -37 -25 -33 -35 5 -11 0 -15 -17 -14 -13 0 -18 3
-11 6 6 2 12 13 12 24 0 10 5 19 12 19 6 0 9 3 6 6 -4 3 -17 -1 -30 -9 -34
-22 -82 -31 -72 -15 6 11 4 11 -7 0 -12 -11 -12 -14 1 -22 10 -7 -36 -10 -132
-9 l-148 1 0 429 0 429 -270 0 -270 0 0 185 0 185 270 0 270 0 0 449 c0 443 0
449 20 444 11 -3 35 -22 53 -42z m-2137 -420 c32 6 39 -16 18 -56 -6 -11 -14
-39 -17 -62 -3 -23 -15 -55 -27 -70 -19 -24 -21 -35 -15 -98 4 -38 8 -103 9
-143 1 -40 8 -78 14 -84 7 -7 12 -19 12 -28 0 -9 6 -22 13 -29 10 -10 9 -11
-3 -6 -13 4 -14 -11 -9 -117 4 -68 12 -136 19 -153 6 -16 18 -53 26 -82 17
-65 46 -133 57 -133 4 0 6 -4 3 -9 -11 -18 69 -145 112 -178 30 -23 38 -33 25
-33 -15 0 -13 -4 9 -25 37 -35 42 -35 49 0 5 22 7 13 8 -32 1 -59 3 -63 40
-92 45 -36 51 -37 52 -13 0 14 3 13 16 -5 8 -13 21 -23 27 -23 14 0 102 -100
138 -156 37 -59 142 -140 203 -158 68 -19 105 -18 98 3 -4 9 7 4 25 -13 l30
-28 50 51 c27 28 51 51 53 51 2 0 5 -11 5 -24 1 -19 -5 -27 -26 -34 -34 -12
-49 -55 -17 -50 12 2 31 21 47 48 29 50 46 54 42 9 -1 -19 3 -32 13 -35 21 -8
19 -21 -5 -27 -13 -3 -20 -14 -20 -30 0 -20 4 -23 24 -20 16 3 26 13 28 27 3
18 7 15 31 -21 17 -28 35 -43 48 -43 11 0 38 -9 59 -20 26 -13 49 -18 65 -14
18 4 32 1 46 -12 14 -13 18 -14 14 -3 -4 12 7 14 72 11 43 -2 81 -9 84 -14 4
-6 14 -8 23 -5 9 4 16 2 16 -3 0 -5 16 -2 35 6 48 20 85 18 85 -3 0 -15 8 -18
55 -16 30 1 55 -2 55 -7 0 -12 100 -13 119 -1 9 6 11 18 6 40 -7 32 -15 33
-73 15 -7 -2 -10 1 -7 6 3 6 12 10 19 10 7 0 31 17 54 38 33 31 42 46 42 73 0
23 3 30 9 20 5 -7 14 -10 20 -7 6 4 9 12 5 17 -3 6 -8 20 -10 32 -2 12 -6 34
-10 48 -6 26 -6 27 31 15 20 -6 30 -12 23 -14 -19 -4 -15 -117 5 -140 27 -31
30 -59 7 -65 -21 -5 -37 -33 -25 -45 3 -4 12 1 19 11 7 9 23 17 35 17 12 0 31
5 42 10 11 6 25 7 32 3 18 -12 97 -10 98 2 1 5 1 16 0 23 -1 6 3 12 10 12 6 0
9 10 7 23 -4 21 -2 23 19 13 27 -13 28 -18 7 -62 -16 -33 -15 -35 6 -52 13
-11 20 -24 16 -30 -11 -17 -46 -15 -46 3 0 18 -45 38 -69 32 -10 -3 -8 -5 7
-6 22 -1 22 -3 22 -126 0 -118 -1 -125 -20 -125 -11 0 -20 5 -20 12 0 9 -3 9
-12 0 -19 -19 -76 -14 -97 7 -11 11 -23 36 -27 56 -5 29 -9 33 -20 24 -8 -7
-14 -30 -14 -55 0 -37 -3 -44 -20 -44 -11 0 -20 5 -20 12 0 9 -3 9 -12 0 -25
-25 -108 -8 -108 23 0 24 -28 17 -61 -15 -25 -24 -35 -27 -50 -19 -11 5 -19
14 -19 19 0 6 -7 10 -15 10 -8 0 -15 -7 -15 -15 0 -11 -11 -15 -39 -15 -44 0
-59 13 -41 35 8 10 9 15 2 15 -18 0 -82 -33 -82 -42 0 -9 -54 -11 -63 -2 -3 4
-2 15 4 25 8 16 6 19 -13 20 l-23 0 23 9 c41 17 26 37 -33 45 -64 8 -77 2 -75
-33 4 -59 0 -72 -20 -72 -12 0 -21 7 -21 18 -1 9 -3 24 -4 32 -1 8 -3 21 -4
28 0 6 -8 12 -16 12 -11 0 -15 -12 -15 -45 0 -41 -2 -45 -25 -45 -22 0 -25 4
-25 35 0 43 -25 39 -35 -6 -5 -20 -13 -29 -26 -29 -10 0 -19 5 -19 11 0 6 -9
8 -21 4 -23 -8 -21 3 8 37 10 11 13 27 8 47 -6 26 -11 31 -37 31 -26 0 -29 -3
-28 -27 1 -16 2 -45 1 -65 -1 -34 -4 -38 -26 -38 -24 0 -25 3 -25 55 0 52 -2
55 -24 55 -48 0 -56 -9 -56 -61 0 -46 -2 -49 -25 -49 -23 0 -25 4 -25 46 0 43
-1 45 -22 38 -13 -5 -49 -7 -80 -6 -32 1 -58 0 -58 -2 0 -33 52 -50 77 -25 6
6 21 9 34 7 l24 -3 -27 -28 c-21 -21 -37 -27 -68 -27 -58 0 -90 33 -90 94 0
37 5 48 31 70 49 41 115 32 141 -19 10 -17 17 -22 27 -15 12 7 12 11 2 24 -9
11 -10 16 -2 16 6 0 11 5 11 10 0 6 -15 10 -33 10 -18 0 -38 5 -44 11 -6 6
-49 13 -96 16 -84 5 -86 5 -80 -16 4 -17 1 -21 -17 -21 -12 0 -28 7 -36 15
-18 17 -70 20 -79 5 -11 -18 15 -38 71 -55 75 -22 98 -74 52 -122 -32 -34
-119 -33 -153 2 -14 13 -25 31 -25 40 0 22 43 19 58 -6 10 -15 21 -19 50 -17
32 3 37 6 37 27 0 22 -8 27 -61 43 -67 19 -86 43 -77 92 7 36 61 60 115 53 21
-3 41 -1 44 4 3 5 -3 10 -13 11 -10 1 -25 2 -33 3 -8 1 -26 7 -40 15 -14 8
-33 13 -42 11 -10 -1 -18 3 -18 9 0 7 7 10 15 6 8 -3 15 -2 15 2 0 12 -62 56
-83 59 -10 2 -35 12 -57 23 -21 11 -60 24 -87 30 -98 21 -103 23 -58 30 22 3
56 2 75 -2 19 -4 36 -5 38 -4 3 4 -68 51 -78 51 -17 2 -51 28 -47 38 2 6 -21
32 -51 57 -30 25 -71 60 -91 77 -19 18 -43 36 -53 39 -34 10 -19 25 18 18 36
-7 36 -6 24 17 -7 13 -33 46 -57 73 -42 47 -82 106 -53 79 7 -6 19 -9 26 -6
19 7 -19 76 -52 94 -26 14 -60 59 -45 59 6 0 10 32 9 78 -1 70 -10 109 -28
122 -4 3 -10 17 -14 32 -5 21 -3 26 8 22 8 -3 16 -1 20 4 8 13 -16 83 -31 89
-7 3 -13 12 -13 19 0 8 -6 25 -14 37 -8 12 -17 38 -21 58 -6 30 -4 37 12 41
12 3 24 21 31 45 16 52 16 97 0 87 -6 -4 -8 -3 -4 4 9 16 -11 62 -28 62 -8 0
-20 -8 -25 -17 -8 -14 -10 -10 -11 23 0 25 6 47 15 54 11 9 12 17 4 32 -8 15
-8 19 0 14 7 -5 11 4 11 23 0 93 47 226 105 296 22 26 21 20 -10 -45 -24 -52
-35 -88 -35 -120 1 -40 2 -43 14 -27 7 9 17 36 21 60 5 32 9 38 14 23 7 -18 8
-18 14 -2 4 10 7 27 7 39 0 31 42 129 50 117 4 -6 11 -10 16 -9z m1164 -1641
c0 -5 -2 -10 -4 -10 -3 0 -8 5 -11 10 -3 6 -1 10 4 10 6 0 11 -4 11 -10z m25
-50 l15 -30 -32 4 c-33 4 -38 17 -16 43 14 18 15 17 33 -17z m923 -10 c-12
-16 -23 -30 -25 -30 -7 0 12 37 25 48 24 19 24 15 0 -18z m222 -214 c0 -3 -4
-8 -10 -11 -5 -3 -10 -1 -10 4 0 6 5 11 10 11 6 0 10 -2 10 -4z m70 -150 c0
-83 3 -105 15 -110 28 -10 17 -36 -15 -36 -41 0 -50 27 -50 151 0 99 0 99 25
99 l25 0 0 -104z m-90 -56 c0 -83 -1 -90 -20 -90 -19 0 -20 7 -20 90 0 83 1
90 20 90 19 0 20 -7 20 -90z"/>
<path d="M2054 4376 c-10 -8 -15 -18 -11 -22 4 -4 17 2 30 14 24 25 12 30 -19
8z"/>
<path d="M1858 4327 c-16 -6 -27 -17 -25 -26 1 -11 -6 -16 -23 -16 -14 0 -25
-6 -24 -12 1 -7 2 -22 3 -33 1 -20 31 -29 31 -10 0 6 7 10 15 10 27 0 63 22
58 36 -3 8 -1 14 5 14 5 0 12 11 14 25 6 28 -7 31 -54 12z"/>
<path d="M1961 4315 l-23 -25 25 0 c40 0 59 10 47 25 -8 9 -4 11 15 7 15 -2
25 0 25 7 0 22 -64 12 -89 -14z"/>
<path d="M3974 3424 c3 -9 6 -18 6 -20 0 -2 7 -4 15 -4 20 0 19 26 -1 34 -24
9 -27 8 -20 -10z"/>
<path d="M3960 2991 c0 -5 5 -13 10 -16 6 -3 10 -2 10 4 0 5 -4 13 -10 16 -5
3 -10 2 -10 -4z"/>
<path d="M4002 2667 c-13 -15 -5 -87 9 -87 11 0 11 1 -2 39 -8 24 -8 35 1 46
7 8 10 15 7 15 -2 0 -9 -6 -15 -13z"/>
<path d="M910 2656 c0 -31 5 -46 16 -50 14 -5 16 -1 10 25 -3 17 -6 40 -6 50
0 11 -4 19 -10 19 -5 0 -10 -20 -10 -44z"/>
<path d="M911 2583 c-1 -12 4 -25 9 -28 12 -7 12 2 0 30 -8 19 -9 19 -9 -2z"/>
<path d="M922 2503 c3 -42 28 -59 28 -20 0 32 -9 57 -22 57 -5 0 -8 -17 -6
-37z"/>
<path d="M1000 2179 c7 -11 14 -19 16 -16 7 7 -7 37 -17 37 -6 0 -5 -9 1 -21z"/>
<path d="M963 2154 c-4 -11 1 -23 16 -36 34 -26 44 -22 26 11 -19 38 -33 47
-42 25z"/>
<path d="M3195 1360 c-3 -5 -1 -10 4 -10 6 0 11 5 11 10 0 6 -2 10 -4 10 -3 0
-8 -4 -11 -10z"/>
<path d="M3140 1321 c-8 -4 -28 -15 -45 -24 -35 -18 -41 -35 -22 -61 11 -15
17 -17 35 -7 12 6 22 18 22 27 0 8 6 14 13 13 29 -4 36 2 34 31 -2 30 -10 35
-37 21z"/>
<path d="M3223 1301 c-10 -29 -2 -51 19 -51 10 0 9 38 0 63 -6 15 -9 13 -19
-12z"/>
<path d="M1810 1215 c-11 -13 -7 -15 29 -15 41 0 55 13 25 24 -25 10 -41 7
-54 -9z"/>
<path d="M3175 1214 c-21 -22 -16 -73 10 -90 46 -31 90 50 49 90 -20 20 -38
20 -59 0z"/>
<path d="M2256 1184 c-4 -11 -1 -14 11 -12 9 2 18 9 21 16 6 18 -25 15 -32 -4z"/>
<path d="M2894 1185 c-17 -13 -17 -14 -2 -15 9 0 20 5 23 11 11 17 0 20 -21 4z"/>
<path d="M2995 1150 c-34 -6 -41 -33 -9 -38 21 -3 49 20 42 35 -1 5 -16 6 -33
3z"/>
</g>
</svg>
