<?xml version="1.0" standalone="no"?>
<!DOCTYPE svg PUBLIC "-//W3C//DTD SVG 20010904//EN"
 "http://www.w3.org/TR/2001/REC-SVG-20010904/DTD/svg10.dtd">
<svg version="1.0" xmlns="http://www.w3.org/2000/svg"
 width="736.000000pt" height="414.000000pt" viewBox="0 0 736.000000 414.000000"
 preserveAspectRatio="xMidYMid meet">

<g transform="translate(0.000000,414.000000) scale(0.100000,-0.100000)"
fill="#000000" stroke="none">
<path d="M0 2070 l0 -2070 3680 0 3680 0 0 25 c0 16 -6 25 -15 25 -8 0 -15 5
-15 10 0 6 7 10 15 10 22 0 18 18 -5 25 -11 3 -20 10 -20 15 0 5 -6 7 -14 4
-8 -3 -17 -1 -21 5 -10 17 23 13 50 -5 l25 -16 0 72 c0 66 -2 74 -27 93 -15
12 -32 22 -37 23 -6 1 -20 5 -31 9 -16 6 -15 3 5 -13 13 -11 28 -18 32 -16 3
2 9 0 12 -5 3 -5 -1 -12 -10 -15 -8 -3 -12 -10 -9 -16 3 -5 1 -10 -4 -10 -6 0
-11 4 -11 10 0 5 -19 15 -43 21 -41 10 -84 49 -55 49 9 0 8 4 -2 10 -11 8 4
10 52 8 38 -2 68 -7 68 -11 0 -5 5 -5 12 -1 6 4 9 3 6 -2 -3 -5 5 -17 18 -27
l24 -18 0 715 c0 670 -1 716 -17 725 -17 10 -17 10 0 11 20 0 24 36 5 43 -10
4 -10 6 0 6 9 1 12 246 12 1191 l0 1190 -3680 0 -3680 0 0 -2070z m5285 1830
c3 -6 18 -10 33 -10 44 0 129 -46 180 -97 103 -105 146 -256 107 -374 -26 -78
-75 -150 -131 -191 -80 -59 -126 -73 -234 -73 -87 0 -101 3 -161 32 -82 41
-150 111 -191 199 -29 61 -30 70 -26 162 4 81 9 106 31 150 52 101 122 160
223 192 62 19 160 24 169 10z m-3865 -284 c47 -8 119 -18 160 -22 41 -3 95
-16 119 -27 41 -19 42 -21 21 -29 -17 -6 -26 -4 -35 9 -8 10 -17 15 -21 10 -4
-4 -2 -7 5 -7 12 0 -18 -49 -31 -50 -8 0 -5 21 7 40 5 8 -5 3 -23 -12 -17 -15
-41 -29 -52 -33 -24 -8 -27 -25 -3 -25 14 0 14 -2 -2 -20 -18 -19 -17 -20 3
-20 13 0 22 6 22 15 0 8 7 15 15 15 8 0 15 5 15 11 0 5 -4 7 -10 4 -6 -3 -7 1
-3 10 3 9 9 13 12 8 11 -16 38 -22 50 -10 8 8 11 7 11 -5 0 -9 -4 -20 -10 -23
-5 -3 -10 -11 -10 -17 0 -6 9 -3 20 7 12 11 20 13 20 6 0 -7 9 -9 25 -5 23 6
30 -2 26 -29 0 -4 2 -6 6 -6 21 3 33 -2 33 -15 0 -17 -51 -62 -82 -72 -13 -4
-40 -18 -61 -32 -26 -17 -41 -22 -48 -15 -7 7 1 17 25 33 36 22 48 37 22 27
-10 -4 -12 0 -9 14 5 17 1 18 -27 12 -30 -6 -33 -4 -28 15 7 27 -18 45 -44 31
-10 -5 -18 -8 -18 -5 0 2 -13 -9 -29 -25 -30 -29 -51 -37 -51 -19 0 6 7 13 15
16 10 4 13 13 10 24 -5 15 -2 17 15 13 11 -3 20 -3 20 0 0 2 -9 7 -21 10 -14
4 -32 -5 -60 -30 -39 -35 -48 -53 -28 -53 5 0 7 5 4 10 -3 6 -4 10 -1 10 2 0
12 3 20 6 12 5 15 2 10 -9 -7 -20 -64 -41 -77 -28 -5 5 -21 6 -36 2 -30 -9
-52 -4 -67 17 -9 13 -18 13 -57 4 -87 -22 -104 -6 -40 38 20 14 46 34 56 45
17 17 19 17 14 3 -7 -19 4 -23 61 -19 17 2 32 -2 32 -8 0 -7 8 -7 25 1 14 6
25 14 25 18 0 12 -36 18 -50 10 -15 -9 -50 -1 -50 12 0 6 7 8 15 4 23 -8 62
10 67 32 6 22 -12 53 -56 95 -27 27 -27 29 -10 43 11 7 28 12 39 9 11 -3 58
-11 105 -19z m-270 -38 c0 -7 -5 -20 -10 -28 -8 -12 -10 -9 -10 13 0 15 5 27
10 27 6 0 10 -6 10 -12z m42 -63 c-10 -14 -24 -20 -35 -17 -22 6 -6 27 21 27
11 0 16 7 14 20 -2 16 -1 17 7 6 6 -10 4 -21 -7 -36z m1538 25 c-14 -26 -61
-45 -129 -53 -29 -4 -58 -13 -65 -21 -9 -13 -23 -14 -76 -7 -36 5 -54 10 -40
11 14 1 32 1 39 0 13 -1 13 1 1 15 -9 11 -22 14 -39 10 -25 -5 -25 -5 -7 10
12 9 41 15 72 15 28 0 76 5 105 10 30 6 71 11 92 12 20 0 37 4 37 9 0 5 5 9
10 9 7 0 7 -6 0 -20z m80 -10 c0 -5 -4 -10 -10 -10 -5 0 -10 5 -10 10 0 6 5
10 10 10 6 0 10 -4 10 -10z m251 -44 c0 -12 3 -30 5 -41 3 -11 5 -35 5 -52 0
-34 7 -40 27 -23 8 7 9 7 3 -1 -5 -6 -7 -19 -4 -28 6 -14 4 -14 -14 2 -11 9
-24 17 -30 17 -15 0 -64 60 -58 70 3 5 1 11 -5 15 -6 4 -8 11 -4 16 3 6 -4 21
-17 35 -35 37 -15 40 38 4 31 -21 41 -25 29 -12 -12 14 -16 28 -11 39 6 17 7
17 21 -1 8 -11 14 -29 15 -40z m-1791 29 c-7 -9 -15 -13 -19 -10 -3 3 1 10 9
15 21 14 24 12 10 -5z m1004 -7 c-1 -10 3 -18 8 -18 6 0 5 -6 -2 -15 -14 -17
-40 -20 -40 -5 0 15 -21 12 -41 -6 -24 -21 -85 -34 -98 -21 -7 7 -15 6 -26 -3
-19 -15 -27 -10 -15 10 6 9 27 14 62 14 29 0 45 2 36 4 -10 2 -18 8 -18 13 0
5 -24 9 -52 9 l-53 0 25 20 c22 18 38 20 120 18 83 -3 95 -5 94 -20z m531 -8
c-3 -5 -12 -10 -18 -10 -7 0 -6 4 3 10 19 12 23 12 15 0z m-448 -6 c-3 -3 -12
-4 -19 -1 -8 3 -5 6 6 6 11 1 17 -2 13 -5z m-1347 -8 c0 -2 -8 -10 -17 -17
-16 -13 -17 -12 -4 4 13 16 21 21 21 13z m700 0 c0 -3 -4 -8 -10 -11 -5 -3
-10 -1 -10 4 0 6 5 11 10 11 6 0 10 -2 10 -4z m57 -18 c-3 -8 -6 -5 -6 6 -1
11 2 17 5 13 3 -3 4 -12 1 -19z m1193 2 c6 -11 8 -20 6 -20 -3 0 -10 9 -16 20
-6 11 -8 20 -6 20 3 0 10 -9 16 -20z m-1810 -1 c0 -6 -7 -9 -15 -5 -8 3 -15 1
-15 -3 0 -5 -7 -11 -15 -15 -13 -4 -14 -2 -5 14 11 21 50 28 50 9z m-29 -50
c-25 -21 -41 -24 -41 -10 0 11 52 40 60 33 3 -2 -6 -12 -19 -23z m1756 25 c-3
-3 -12 -4 -19 -1 -8 3 -5 6 6 6 11 1 17 -2 13 -5z m-874 -11 c-7 -2 -19 -2
-25 0 -7 3 -2 5 12 5 14 0 19 -2 13 -5z m492 -3 c-3 -5 -15 -10 -26 -10 -11 0
-17 5 -14 10 3 6 15 10 26 10 11 0 17 -4 14 -10z m-345 -23 c0 4 5 0 11 -9 7
-12 6 -25 -2 -40 l-12 -23 -10 28 c-5 15 -13 28 -18 28 -8 1 -16 3 -36 8 -5 2
1 6 12 10 11 5 28 4 38 -1 9 -5 17 -5 17 -1z m755 3 c-3 -5 -11 -10 -16 -10
-6 0 -7 5 -4 10 3 6 11 10 16 10 6 0 7 -4 4 -10z m235 -12 c0 -5 10 -18 23
-29 23 -19 42 -25 33 -10 -4 5 3 7 13 4 11 -3 17 -11 15 -18 -3 -7 3 -16 13
-19 10 -3 34 -19 53 -36 19 -16 39 -30 45 -30 5 0 4 -5 -3 -12 -9 -9 -16 -7
-32 7 -11 10 -20 14 -20 9 0 -5 -5 -2 -10 6 -8 13 -10 13 -10 -1 0 -9 3 -19 8
-23 4 -4 7 -13 7 -18 0 -6 6 -13 14 -16 8 -3 11 0 7 7 -4 6 -2 11 3 11 6 0 11
-6 11 -12 1 -7 21 -29 45 -48 25 -19 45 -42 46 -50 0 -11 2 -12 6 -2 3 7 -3
22 -13 34 -11 11 -17 22 -14 24 3 2 -3 12 -12 24 -10 11 -14 20 -8 20 5 0 11
-4 15 -10 3 -5 11 -7 18 -4 7 2 18 -5 25 -17 8 -12 9 -18 3 -14 -6 3 -11 -1
-11 -10 0 -8 7 -18 15 -21 9 -4 13 -13 10 -23 -3 -12 3 -22 20 -31 13 -7 21
-18 18 -23 -4 -6 0 -8 10 -4 10 4 16 2 14 -6 -1 -8 8 -11 26 -9 18 2 26 -1 22
-8 -3 -5 0 -13 9 -16 8 -3 22 -16 30 -30 14 -20 14 -23 1 -18 -8 4 -15 10 -15
15 0 11 -37 35 -67 44 -14 4 -23 2 -23 -4 0 -6 6 -10 13 -9 6 2 10 -4 9 -12
-2 -8 -1 -12 3 -8 4 3 29 -7 57 -23 27 -16 47 -26 44 -21 -2 4 4 13 14 20 16
9 20 8 25 -8 3 -11 12 -17 19 -14 8 3 21 -4 29 -16 8 -11 18 -20 23 -19 5 1
17 -1 27 -6 25 -11 33 1 13 20 -9 9 -16 21 -16 26 0 15 17 10 24 -7 3 -8 11
-12 17 -9 6 4 13 -2 16 -14 3 -12 8 -21 12 -22 28 -3 43 -9 57 -23 21 -21 140
-81 125 -63 -6 8 -7 18 -3 22 4 5 -1 5 -10 2 -12 -4 -21 1 -28 14 -10 17 -9
19 7 11 10 -5 30 -15 45 -23 16 -7 26 -15 23 -17 -3 -3 1 -12 8 -20 10 -13 9
-15 -5 -9 -34 13 -17 -1 67 -52 47 -29 85 -57 85 -62 0 -5 10 -13 23 -18 16
-6 6 -8 -36 -7 -37 0 -52 3 -40 8 10 4 -1 5 -25 2 -38 -5 -44 -3 -49 15 -6 25
-23 28 -23 5 0 -13 -7 -15 -32 -11 -18 3 -42 8 -53 12 -17 6 -18 5 -5 -5 12
-9 7 -10 -25 -6 -22 3 -55 6 -74 6 -19 0 -31 3 -28 7 4 3 -3 11 -16 18 -12 6
-44 24 -70 38 -27 15 -46 23 -43 18 3 -5 -3 -7 -14 -4 -24 6 -26 -10 -4 -32
14 -13 14 -18 2 -32 -11 -15 -11 -16 5 -10 9 3 17 2 17 -4 0 -20 -33 -22 -47
-3 -12 16 -15 17 -24 4 -8 -11 -9 -9 -3 10 6 22 5 23 -9 12 -19 -16 -12 -42
11 -42 8 0 13 -3 9 -6 -3 -4 -14 -3 -24 2 -18 8 -29 10 -71 13 -13 0 -21 5
-18 10 3 5 -2 8 -12 7 -10 0 -16 6 -16 17 2 18 -21 24 -31 7 -3 -5 -1 -10 6
-10 7 0 10 -3 7 -6 -4 -3 -23 -1 -44 5 -41 11 -58 6 -34 -10 11 -7 5 -8 -19
-4 -31 7 -99 40 -111 56 -3 3 -22 6 -43 7 -42 2 -60 9 -52 22 3 4 -1 7 -8 6
-6 0 -12 4 -12 9 0 6 5 10 10 10 6 0 16 4 23 8 7 5 12 3 12 -6 0 -7 7 -14 14
-14 11 0 13 5 5 19 -5 10 -16 18 -24 18 -8 0 -15 6 -15 13 0 6 -5 4 -11 -5
-12 -22 -38 -23 -45 -4 -3 9 -12 12 -22 8 -15 -5 -16 -4 -2 13 10 12 10 16 2
11 -15 -9 -62 19 -62 37 0 8 2 9 8 1 4 -6 17 -14 29 -18 19 -6 22 -4 20 21 -1
15 -10 34 -19 41 -10 7 -18 17 -18 23 0 11 22 8 31 -5 11 -15 39 2 39 24 0 24
-2 24 46 5 39 -16 39 -16 17 3 -12 11 -19 23 -15 26 4 4 -4 16 -18 26 -21 17
-22 20 -7 20 11 0 31 -8 45 -19 80 -56 196 -102 176 -69 -4 7 -3 8 5 4 6 -4 9
-12 6 -17 -4 -5 1 -9 9 -9 9 0 16 -6 16 -12 0 -9 4 -8 10 2 8 13 14 8 12 -11
-1 -7 47 -3 55 4 3 3 2 14 -1 24 -3 10 -5 22 -5 27 0 5 -4 12 -10 15 -6 4 -12
17 -14 29 -2 12 -7 25 -12 29 -4 5 -5 2 0 -6 5 -9 3 -12 -6 -9 -8 3 -13 11
-11 17 2 10 -19 16 -42 12 -5 -1 -4 4 3 13 9 11 9 16 0 22 -8 5 -9 3 -4 -6 5
-9 4 -11 -3 -6 -7 4 -12 14 -12 23 0 8 -6 13 -12 10 -7 -2 -22 -1 -33 4 -19 7
-19 8 3 8 19 1 21 3 10 20 -11 18 -51 44 -71 45 -4 1 -13 10 -20 22 -42 71
-74 114 -84 114 -7 0 -13 6 -13 13 0 8 -4 7 -11 -3 -8 -12 -10 -9 -6 11 3 22
1 25 -17 21 -18 -5 -19 -3 -8 11 14 16 42 13 42 -5z m-775 2 c3 -5 -3 -10 -14
-10 -12 0 -21 5 -21 10 0 6 6 10 14 10 8 0 18 -4 21 -10z m-450 -36 c7 2 16
-2 19 -10 4 -11 10 -12 25 -4 24 12 31 13 31 2 0 -5 -18 -15 -40 -22 -43 -14
-48 -27 -31 -88 8 -27 7 -32 -8 -32 -22 0 -27 31 -21 135 1 33 5 50 7 37 3
-15 10 -22 18 -18z m-840 16 c-3 -5 -12 -10 -18 -10 -7 0 -6 4 3 10 19 12 23
12 15 0z m999 -33 c-11 -6 -13 -17 -9 -40 5 -24 3 -28 -4 -17 -9 13 -12 12
-25 -5 -12 -16 -16 -17 -29 -6 -9 7 -21 10 -27 6 -5 -3 -10 -2 -10 3 0 6 16
13 36 16 25 5 34 11 30 22 -3 8 1 14 8 14 9 0 12 7 9 21 -5 19 -4 20 15 8 18
-12 19 -15 6 -22z m1196 -7 c12 -8 11 -10 -7 -10 -13 0 -23 5 -23 10 0 13 11
13 30 0z m-880 -130 c0 -9 -62 -30 -92 -30 -10 0 -18 6 -18 14 0 10 14 16 43
19 23 2 48 4 55 5 6 1 12 -2 12 -8z m680 -26 c0 -3 -7 -1 -15 6 -8 7 -15 17
-15 22 0 5 7 3 15 -6 8 -8 15 -18 15 -22z m-1132 4 c-3 -7 -21 -13 -41 -14
-20 -1 -43 -7 -52 -14 -10 -8 -15 -9 -15 -2 0 6 21 18 48 26 60 18 65 19 60 4z
m212 -14 c0 -2 -11 -4 -25 -4 -14 0 -25 4 -25 9 0 4 11 6 25 3 14 -2 25 -6 25
-8z m385 6 c-3 -5 -13 -10 -21 -10 -8 0 -14 5 -14 10 0 6 9 10 21 10 11 0 17
-4 14 -10z m-177 -14 c-10 -7 -18 -18 -18 -25 0 -6 -6 -11 -12 -11 -7 0 0 -10
15 -23 l29 -22 -76 3 c-50 3 -76 1 -76 -7 0 -6 -6 -8 -14 -5 -21 8 -98 -15
-90 -27 4 -7 -1 -7 -14 0 -12 6 -34 13 -49 14 -15 2 -41 9 -57 15 -29 13 -137
8 -179 -7 -20 -7 -19 -8 6 -15 28 -7 28 -26 1 -26 -8 0 -12 5 -9 10 3 6 -5 11
-19 11 -14 1 -30 3 -36 4 -5 1 -19 3 -30 4 -17 1 -19 4 -8 21 12 18 13 18 32
2 11 -9 16 -11 12 -4 -4 6 -4 12 1 13 54 4 75 9 88 19 14 11 55 5 55 -8 0 -4
22 -5 50 -4 30 3 50 0 50 -7 0 -7 10 -6 32 1 24 9 33 8 36 0 2 -7 10 -12 18
-12 8 0 11 6 8 15 -5 12 2 14 35 10 23 -2 39 0 36 5 -3 4 -1 20 5 34 9 24 14
26 62 25 29 -1 43 -4 31 -6 -13 -2 -23 -9 -23 -14 0 -11 23 -6 74 17 40 17 56
17 34 0z m742 -7 c0 -6 -4 -7 -10 -4 -5 3 -10 11 -10 16 0 6 5 7 10 4 6 -3 10
-11 10 -16z m190 11 c0 -5 -2 -10 -4 -10 -3 0 -8 5 -11 10 -3 6 -1 10 4 10 6
0 11 -4 11 -10z m190 -10 c0 -5 -2 -10 -4 -10 -3 0 -8 5 -11 10 -3 6 -1 10 4
10 6 0 11 -4 11 -10z m-371 -34 c13 -7 20 -16 15 -19 -5 -3 -20 3 -33 14 -27
22 -17 25 18 5z m61 -11 c0 -8 -2 -15 -4 -15 -2 0 -6 7 -10 15 -3 8 -1 15 4
15 6 0 10 -7 10 -15z m-60 -28 c13 -5 13 -6 -1 -6 -8 -1 -24 6 -35 15 -19 15
-19 15 1 6 11 -5 27 -12 35 -15z m394 7 c3 -8 2 -12 -4 -9 -6 3 -10 10 -10 16
0 14 7 11 14 -7z m-1516 -44 c30 -34 47 -37 74 -13 20 18 25 17 30 -11 2 -16
-5 -22 -41 -29 -38 -8 -45 -6 -58 12 -8 12 -23 21 -34 21 -11 0 -17 5 -14 10
4 6 11 8 16 5 16 -11 9 7 -8 21 -13 9 -14 13 -5 14 8 0 26 -13 40 -30z m1330
-46 c20 -13 33 -24 29 -24 -16 0 -71 33 -89 54 -24 29 -23 44 2 16 11 -13 37
-34 58 -46z m-931 8 c26 -16 64 -33 83 -37 19 -4 43 -12 54 -17 28 -15 0 -29
-33 -16 -17 6 -27 6 -29 -1 -2 -6 -8 -9 -13 -5 -5 3 -9 0 -9 -5 0 -16 -36 -13
-50 4 -7 8 -20 15 -29 16 -9 0 -11 3 -4 5 6 3 26 -2 43 -11 18 -9 29 -12 26
-7 -3 6 2 13 11 16 10 3 6 4 -10 2 -15 -2 -30 1 -33 5 -3 5 -16 9 -30 9 -14 0
-22 4 -19 10 3 6 2 10 -4 10 -16 0 -22 -18 -9 -23 7 -2 10 -8 6 -11 -3 -4 -16
2 -29 15 -16 16 -18 21 -6 16 9 -3 17 -2 17 4 0 6 -15 9 -32 8 -18 -2 -42 2
-53 8 -16 9 -17 14 -6 27 21 25 101 14 158 -22z m303 27 c0 -8 4 -8 15 1 14
11 35 6 35 -8 0 -14 -43 -11 -64 4 -17 12 -18 14 -3 14 9 0 17 -5 17 -11z
m101 -10 c-13 -11 -27 -19 -31 -19 -5 0 -6 8 -3 19 3 12 14 19 31 19 l26 0
-23 -19z m42 -9 c-4 -13 -14 -20 -30 -20 l-25 0 23 20 c31 25 38 25 32 0z
m314 14 c-3 -3 -12 -4 -19 -1 -8 3 -5 6 6 6 11 1 17 -2 13 -5z m-1220 -10 c-3
-3 -12 -4 -19 -1 -8 3 -5 6 6 6 11 1 17 -2 13 -5z m963 -29 c11 -13 9 -15 -9
-12 -12 2 -27 9 -33 15 -9 9 -7 12 9 12 11 0 26 -7 33 -15z m-710 -9 c0 -8 -5
-18 -12 -22 -7 -5 -9 -2 -5 9 3 9 1 18 -6 21 -7 2 -4 5 6 5 9 1 17 -5 17 -13z
m597 -2 c-3 -3 -12 -4 -19 -1 -8 3 -5 6 6 6 11 1 17 -2 13 -5z m-540 -19 c0
-8 -4 -15 -9 -15 -4 0 -8 7 -8 15 0 8 4 15 8 15 5 0 9 -7 9 -15z m1608 5 c3
-5 -3 -10 -14 -10 -12 0 -21 5 -21 10 0 6 6 10 14 10 8 0 18 -4 21 -10z
m-1785 -10 c0 -5 -2 -10 -4 -10 -3 0 -8 5 -11 10 -3 6 -1 10 4 10 6 0 11 -4
11 -10z m930 -31 c7 -11 9 -23 6 -27 -3 -3 -6 0 -6 6 0 7 -3 11 -7 10 -5 0
-16 2 -26 7 -15 6 -16 10 -5 16 20 13 26 11 38 -12z m910 4 c0 -17 -15 -16
-30 1 -9 12 -8 15 9 13 12 -1 21 -7 21 -14z m-1274 -24 c7 -12 -15 -31 -28
-23 -4 3 -8 12 -8 20 0 17 26 19 36 3z m114 1 c-12 -8 -12 -10 -1 -10 8 0 12
-3 8 -6 -9 -9 -28 6 -22 17 4 5 12 9 18 9 7 0 6 -4 -3 -10z m84 -10 c22 0 44
-10 69 -33 41 -36 45 -47 20 -47 -14 0 -15 -2 -4 -12 10 -11 15 -9 27 6 8 11
14 14 14 7 0 -7 6 -9 13 -6 6 4 4 0 -7 -9 -11 -9 -15 -20 -11 -28 6 -10 5 -11
-6 0 -16 14 -33 16 -24 2 8 -13 4 -13 -38 5 -36 15 -102 87 -90 99 3 3 -1 6
-10 6 -9 0 -17 5 -17 11 0 6 7 8 16 5 9 -3 30 -6 48 -6z m250 -66 c9 -3 16 -9
16 -13 0 -12 -45 -7 -58 6 -11 11 -10 13 6 13 11 0 27 -3 36 -6z m1014 -24 c7
0 12 -7 12 -15 0 -28 -31 -9 -55 35 -6 11 -3 10 12 -2 11 -10 25 -18 31 -18z
m2536 -162 c-4 -6 -10 -5 -15 3 -14 22 -10 33 6 19 8 -7 12 -17 9 -22z m702
-7 c-3 -5 -20 -14 -36 -20 -35 -12 -32 5 4 19 28 12 38 12 32 1z m-682 -27 c6
-15 4 -15 -11 -3 -10 7 -20 15 -22 16 -2 2 3 3 11 3 9 0 19 -7 22 -16z m-504
-29 c11 -13 10 -14 -4 -9 -9 3 -16 10 -16 15 0 13 6 11 20 -6z m-143 -1 c-3
-3 -12 -4 -19 -1 -8 3 -5 6 6 6 11 1 17 -2 13 -5z m-403 -26 c4 3 6 1 6 -5 0
-6 7 -13 14 -16 11 -4 13 -1 9 11 -5 16 -5 16 8 0 10 -11 35 -18 80 -21 58 -4
74 -1 125 24 33 16 74 28 94 28 32 -1 33 -2 10 -9 -14 -4 -20 -8 -15 -9 13 -1
-42 -35 -80 -49 -17 -6 -24 -11 -17 -11 6 -1 12 -5 12 -10 0 -8 -33 -2 -115
19 -23 6 -38 -3 -16 -9 14 -4 26 -13 29 -21 3 -13 2 -13 -7 0 -9 12 -13 12
-19 3 -10 -16 -113 -7 -124 11 -5 7 -8 7 -8 -3 0 -11 -4 -10 -19 3 -12 11 -21
13 -25 7 -5 -7 -15 -7 -32 -1 -14 6 -50 10 -80 10 -49 0 -54 2 -40 15 8 8 19
15 24 15 6 0 12 5 14 11 6 19 79 26 125 13 23 -6 44 -9 47 -6z m1531 12 c-3
-5 -13 -10 -22 -10 -9 0 -13 -6 -9 -15 4 -10 -1 -15 -14 -15 -11 0 -20 -5 -20
-11 0 -6 9 -9 20 -6 11 3 20 1 20 -3 0 -5 -17 -12 -37 -15 -21 -3 -53 -10 -71
-14 -18 -5 -45 -8 -60 -6 -15 2 -32 -1 -39 -6 -7 -6 -13 -6 -17 0 -4 5 4 13
16 16 13 4 59 23 103 42 66 29 104 44 133 52 2 1 0 -3 -3 -9z m-1078 -40 c18
0 45 7 59 16 19 13 28 14 37 5 8 -8 6 -11 -10 -11 -26 0 -39 -16 -21 -24 7 -3
4 -4 -8 -1 -25 6 -139 -19 -158 -34 -17 -15 -66 -10 -66 6 0 12 19 20 69 26
14 2 27 10 29 18 11 42 14 44 25 22 7 -17 19 -23 44 -23z m600 14 c-6 -6 -47
9 -47 17 0 5 11 3 25 -3 14 -6 24 -13 22 -14z m-67 6 c8 -5 11 -10 5 -10 -5 0
-17 5 -25 10 -8 5 -10 10 -5 10 6 0 17 -5 25 -10z m737 4 c-3 -3 -12 -4 -19
-1 -8 3 -5 6 6 6 11 1 17 -2 13 -5z m-1132 -14 c-11 -17 13 -38 38 -33 18 4
23 0 23 -17 0 -20 -1 -20 -13 -4 -7 10 -13 12 -13 6 0 -27 -39 -5 -52 30 -7
17 -1 28 14 28 5 0 6 -5 3 -10z m30 -10 c3 -5 1 -10 -4 -10 -6 0 -11 5 -11 10
0 6 2 10 4 10 3 0 8 -4 11 -10z m-55 -14 c0 -3 -4 -8 -10 -11 -5 -3 -10 -1
-10 4 0 6 5 11 10 11 6 0 10 -2 10 -4z m-35 -26 c3 -5 1 -10 -4 -10 -6 0 -11
5 -11 10 0 6 2 10 4 10 3 0 8 -4 11 -10z m725 -34 c0 -2 -8 -10 -17 -17 -16
-13 -17 -12 -4 4 13 16 21 21 21 13z m100 -2 c0 -3 -5 -14 -10 -25 -11 -20
-40 -27 -40 -9 0 6 5 10 10 10 6 0 9 3 9 8 -3 16 2 22 16 22 8 0 15 -3 15 -6z
m-2620 -29 c11 -13 10 -14 -4 -9 -9 3 -16 10 -16 15 0 13 6 11 20 -6z m2558
-17 c-5 -14 -40 -26 -82 -27 -24 -1 -26 1 -16 13 6 8 28 17 48 19 20 2 41 4
45 5 5 1 7 -4 5 -10z m-1005 -29 c-8 -8 -16 -8 -30 0 -16 9 -14 10 12 11 21 0
26 -3 18 -11z m614 -5 c-3 -3 -12 -4 -19 -1 -8 3 -5 6 6 6 11 1 17 -2 13 -5z
m273 -4 c0 -5 -7 -7 -15 -4 -8 4 -15 8 -15 10 0 2 7 4 15 4 8 0 15 -4 15 -10z
m-6427 -89 c-4 -4 -11 -10 -14 -14 -4 -5 -6 3 -5 16 1 20 4 23 14 15 7 -6 9
-14 5 -17z m5717 -1 c0 -5 -8 -10 -17 -10 -15 0 -16 2 -3 10 19 12 20 12 20 0z
m270 -10 c0 -5 -10 -10 -22 -10 -19 0 -20 2 -8 10 19 13 30 13 30 0z m-5843
-34 c1 -14 -2 -24 -8 -21 -10 7 -11 3 -3 -19 3 -8 11 -13 18 -10 14 5 61 -54
51 -64 -4 -4 -11 1 -16 11 -6 9 -14 15 -19 12 -4 -3 -24 17 -44 45 -39 54 -41
60 -26 60 6 0 9 -5 8 -11 -2 -6 3 -14 11 -17 8 -3 11 0 7 7 -4 6 -2 11 5 11 8
0 7 5 -2 17 -12 14 -12 16 1 11 8 -2 16 -17 17 -32z m172 20 c7 -8 8 -17 3
-19 -4 -3 -13 3 -20 14 -14 22 0 26 17 5z m5028 -4 c-11 -10 -21 -10 -53 1
l-39 14 52 -1 c42 -1 50 -3 40 -14z m-417 -32 c0 -5 -5 -10 -11 -10 -5 0 -7 5
-4 10 3 6 8 10 11 10 2 0 4 -4 4 -10z m213 -7 c-4 -11 -3 -14 6 -9 18 11 80
15 86 6 8 -13 -33 -32 -53 -26 -10 3 -32 2 -50 -3 -36 -11 -41 -5 -14 15 16
12 15 13 -5 14 -13 0 -23 -3 -23 -7 0 -5 -17 -8 -39 -8 -24 0 -37 4 -34 11 2
6 29 11 59 12 31 0 58 3 61 6 11 10 13 7 6 -11z m177 0 c0 -3 -7 -3 -15 1 -9
3 -15 0 -15 -9 0 -9 -9 -15 -22 -15 l-23 0 24 19 c22 16 51 19 51 4z m-5550
-3 c0 -5 -5 -10 -11 -10 -5 0 -7 5 -4 10 3 6 8 10 11 10 2 0 4 -4 4 -10z m483
-25 c30 -38 28 -55 -6 -54 -12 0 -17 3 -11 5 17 7 5 46 -20 66 -15 13 -17 18
-6 18 8 0 28 -16 43 -35z m5187 26 c0 -13 -29 -22 -83 -27 -29 -2 -45 0 -42 6
3 6 28 10 56 10 27 0 49 5 49 10 0 6 5 10 10 10 6 0 10 -4 10 -9z m1197 3 c-3
-3 -12 -4 -19 -1 -8 3 -5 6 6 6 11 1 17 -2 13 -5z m-2214 -11 c-7 -2 -21 -2
-30 0 -10 3 -4 5 12 5 17 0 24 -2 18 -5z m82 -8 c11 -1 26 -3 33 -4 26 -2 10
-16 -18 -15 -73 3 -95 6 -76 11 15 4 16 7 5 15 -10 6 -6 7 11 2 14 -4 34 -8
45 -9z m490 5 c3 -5 1 -10 -4 -10 -6 0 -11 5 -11 10 0 6 2 10 4 10 3 0 8 -4
11 -10z m-4667 -40 c7 0 12 -7 12 -15 0 -8 11 -22 25 -31 28 -18 33 -39 11
-47 -9 -4 -21 5 -31 20 -10 14 -12 22 -6 19 15 -10 14 11 -1 21 -7 5 -26 24
-43 43 -25 29 -26 31 -4 12 14 -12 31 -22 37 -22z m4417 13 c7 -21 6 -21 -32
-11 -18 5 -33 14 -33 22 0 18 57 8 65 -11z m-4351 -5 c8 13 46 -5 46 -23 0 -6
8 -15 19 -22 23 -15 35 -53 15 -53 -16 0 -19 -17 -3 -22 13 -4 1 -38 -13 -38
-6 0 -17 -8 -24 -17 -12 -15 -12 -13 -1 15 15 36 11 82 -5 82 -6 0 -7 8 -4 17
4 10 4 14 0 11 -8 -9 -54 46 -53 63 0 8 4 5 8 -5 5 -13 10 -16 15 -8z m-599
-8 c3 -5 1 -10 -4 -10 -6 0 -11 5 -11 10 0 6 2 10 4 10 3 0 8 -4 11 -10z
m4995 0 c-18 -12 -30 -13 -30 -2 0 4 10 9 22 9 18 2 20 0 8 -7z m380 -10 c-30
-23 -40 -25 -40 -6 0 8 12 17 28 19 15 2 29 5 32 5 3 1 -6 -7 -20 -18z m136 9
c3 -6 24 -9 45 -7 31 3 39 0 37 -12 -5 -23 -79 -30 -122 -11 -38 17 -50 37
-16 28 11 -3 20 -1 20 4 0 13 27 11 36 -2z m-4702 -7 c3 -5 -1 -9 -9 -9 -8 0
-12 4 -9 9 3 4 7 8 9 8 2 0 6 -4 9 -8z m1201 -2 c3 -5 -1 -10 -10 -10 -9 0
-13 5 -10 10 3 6 8 10 10 10 2 0 7 -4 10 -10z m1490 -18 c-6 -7 -55 11 -50 18
3 5 16 3 29 -3 14 -7 23 -13 21 -15z m3295 18 c0 -5 -2 -10 -4 -10 -3 0 -8 5
-11 10 -3 6 -1 10 4 10 6 0 11 -4 11 -10z m-5800 -15 c0 -5 -11 -11 -25 -11
-24 -2 -32 6 -19 19 10 9 44 4 44 -8z m852 4 c2 -6 18 -17 36 -25 31 -12 32
-12 22 6 -8 16 -8 18 5 14 8 -4 15 -10 15 -15 0 -5 8 -8 18 -7 45 3 79 -3 79
-15 0 -8 -6 -14 -14 -14 -7 0 -13 3 -13 7 0 3 -9 6 -19 6 -11 0 -19 -5 -18
-11 1 -5 -5 -9 -13 -7 -23 5 -41 4 -90 -7 -30 -6 -48 -6 -55 1 -7 6 -5 9 5 8
27 -4 40 0 40 11 0 8 -12 10 -35 6 l-35 -6 25 23 c14 13 22 26 18 29 -3 4 1 7
10 7 8 0 17 -5 19 -11z m718 1 c0 -5 -6 -10 -14 -10 -8 0 -18 5 -21 10 -3 6 3
10 14 10 12 0 21 -4 21 -10z m755 -8 c-3 -3 -11 0 -18 7 -9 10 -8 11 6 5 10
-3 15 -9 12 -12z m3414 14 c-2 -2 -14 -9 -26 -15 -19 -10 -23 -9 -23 4 0 10 9
15 27 15 14 0 24 -2 22 -4z m-6768 -48 c19 -23 26 -38 17 -38 -7 0 -19 9 -26
21 -9 13 -20 19 -32 16 -11 -3 -24 1 -30 8 -8 9 -4 12 17 9 16 -2 20 -1 11 2
-22 7 -24 21 -3 21 9 0 30 -18 46 -39z m1623 28 c-10 -8 -21 -12 -24 -10 -5 6
21 24 34 24 6 0 1 -6 -10 -14z m1020 5 c3 -4 18 -7 33 -5 l28 4 -27 -9 c-14
-5 -31 -12 -36 -15 -5 -3 -12 3 -15 14 -5 20 7 28 17 11z m126 -3 c0 -4 -13
-8 -30 -8 -16 0 -30 5 -30 10 0 6 14 9 30 8 17 -1 30 -6 30 -10z m197 6 c-3
-3 -12 -4 -19 -1 -8 3 -5 6 6 6 11 1 17 -2 13 -5z m93 2 c0 -2 -7 -6 -15 -10
-8 -3 -15 -1 -15 4 0 6 7 10 15 10 8 0 15 -2 15 -4z m167 -2 c-3 -3 -12 -4
-19 -1 -8 3 -5 6 6 6 11 1 17 -2 13 -5z m80 0 c-3 -3 -12 -4 -19 -1 -8 3 -5 6
6 6 11 1 17 -2 13 -5z m291 -1 c-10 -2 -26 -2 -35 0 -10 3 -2 5 17 5 19 0 27
-2 18 -5z m79 1 c-3 -3 -12 -4 -19 -1 -8 3 -5 6 6 6 11 1 17 -2 13 -5z m251
-1 c-27 -2 -69 -2 -95 0 -27 2 -5 3 47 3 52 0 74 -1 48 -3z m115 0 c-13 -2
-33 -2 -45 0 -13 2 -3 4 22 4 25 0 35 -2 23 -4z m-3109 -18 c-4 -9 0 -15 7
-15 11 0 11 -3 -1 -11 -11 -7 2 -9 45 -5 33 3 69 5 80 6 l20 1 -20 9 c-19 8
-19 9 2 9 12 1 27 -7 33 -16 7 -11 13 -14 16 -7 2 6 18 8 34 6 53 -8 32 -20
-30 -19 -33 1 -60 -2 -60 -7 0 -5 -7 -3 -15 4 -8 7 -15 8 -15 3 0 -5 -26 -9
-57 -9 -40 1 -58 5 -57 14 1 6 2 21 3 32 0 11 5 20 11 20 5 0 7 -7 4 -15z
m1581 5 c3 -6 -1 -7 -9 -4 -18 7 -21 14 -7 14 6 0 13 -4 16 -10z m3355 -3
c-27 -15 -36 -14 -25 2 3 6 16 11 28 11 21 0 21 -1 -3 -13z m-5650 -44 c0 -8
-5 -11 -10 -8 -6 4 -7 11 -4 17 5 7 1 9 -9 5 -9 -3 -21 1 -29 11 -9 11 -10 14
0 8 7 -4 12 -2 12 5 0 7 8 5 20 -6 11 -10 20 -24 20 -32z m567 36 c8 -8 17 -8
33 1 12 6 24 9 27 6 8 -8 -43 -26 -73 -26 -23 0 -31 10 -17 23 9 10 17 9 30
-4z m708 -12 c6 -5 -3 -6 -18 -2 -16 3 -26 2 -23 -3 3 -5 -8 -9 -24 -8 -17 1
-30 6 -30 13 0 6 8 9 19 6 11 -3 28 0 38 5 10 6 20 8 23 4 3 -4 10 -11 15 -15z
m293 -12 c-3 -3 -9 2 -12 12 -6 14 -5 15 5 6 7 -7 10 -15 7 -18z m4029 19 c-3
-3 -12 -4 -19 -1 -8 3 -5 6 6 6 11 1 17 -2 13 -5z m-5246 -21 c13 -16 12 -17
-3 -4 -17 13 -22 21 -14 21 2 0 10 -8 17 -17z m752 7 c10 0 15 -5 12 -11 -4
-6 -13 -8 -21 -5 -7 3 -16 1 -19 -4 -7 -12 -26 -13 -24 -2 3 19 -3 21 -23 8
-19 -12 -25 -12 -35 -1 -10 11 -7 15 20 18 17 2 41 3 52 1 11 -2 28 -4 38 -4z
m65 -15 c-3 -3 -13 -2 -22 1 -14 5 -15 9 -4 15 13 8 36 -6 26 -16z m232 15 c0
-12 -17 -12 -45 0 -17 7 -15 9 13 9 17 1 32 -3 32 -9z m138 4 c-10 -9 -58 -12
-58 -3 0 5 14 9 32 9 17 0 29 -3 26 -6z m4340 -1 c-10 -2 -26 -2 -35 0 -10 3
-2 5 17 5 19 0 27 -2 18 -5z m-5198 -13 c0 -5 -4 -12 -10 -15 -5 -3 -10 -2
-10 3 0 5 -11 8 -25 7 -14 -2 -23 0 -20 4 6 11 65 12 65 1z m4530 -5 c0 -8 -2
-15 -4 -15 -2 0 -6 7 -10 15 -3 8 -1 15 4 15 6 0 10 -7 10 -15z m87 -7 c-3 -8
-6 -5 -6 6 -1 11 2 17 5 13 3 -3 4 -12 1 -19z m-5539 -27 c-7 -9 -13 -17 -14
-18 0 -2 -1 10 -1 27 0 24 3 27 14 19 11 -9 11 -15 1 -28z m97 29 c3 -5 1 -10
-4 -10 -6 0 -11 5 -11 10 0 6 2 10 4 10 3 0 8 -4 11 -10z m6352 4 c-3 -3 -12
-4 -19 -1 -8 3 -5 6 6 6 11 1 17 -2 13 -5z m-6279 -11 c-10 -2 -26 -2 -35 0
-10 3 -2 5 17 5 19 0 27 -2 18 -5z m476 -22 c8 -12 -21 -34 -33 -27 -6 4 -8
13 -4 21 6 17 29 20 37 6z m-620 -26 c-9 -14 -19 -23 -22 -20 -5 4 26 45 35
45 2 0 -4 -11 -13 -25z m191 -13 c-3 -3 -11 0 -18 7 -9 10 -8 11 6 5 10 -3 15
-9 12 -12z m6267 -117 c3 3 18 1 34 -4 16 -5 46 -12 67 -16 46 -7 48 -20 5
-22 -27 -2 -29 0 -13 7 16 7 17 9 3 9 -9 1 -20 -3 -23 -9 -10 -16 -35 -12 -35
6 0 8 -4 12 -10 9 -9 -6 -70 21 -70 31 0 2 8 0 19 -5 10 -6 20 -8 23 -6z m-22
-19 c0 -2 -7 -7 -16 -10 -8 -3 -12 -2 -9 4 6 10 25 14 25 6z m448 -63 c-4 -21
-28 -30 -28 -10 0 9 -10 18 -22 20 -14 3 -8 5 15 6 31 1 38 -2 35 -16z m-4752
-21 c-3 -5 8 -8 24 -7 17 1 28 0 25 -3 -2 -3 14 -18 36 -34 23 -16 38 -32 35
-35 -3 -3 -12 -1 -19 6 -12 9 -13 7 -9 -14 4 -23 1 -25 -29 -25 -27 0 -39 8
-59 35 -28 37 -51 48 -84 36 -11 -5 -29 -7 -38 -6 -10 2 -21 -1 -24 -7 -4 -6
-10 -5 -15 3 -17 27 -18 27 101 48 25 5 49 9 53 10 5 0 6 -3 3 -7z m5018 -8
c14 -5 17 -4 11 6 -5 8 -3 11 4 9 7 -3 12 -9 11 -14 -1 -6 9 -13 22 -17 13 -4
-2 -5 -32 -2 -30 2 -67 5 -82 7 -15 1 -30 7 -32 12 -4 12 68 11 98 -1z m-1724
-41 c28 -26 60 -63 70 -84 44 -86 44 -239 -1 -301 -10 -15 -19 -32 -19 -38 0
-24 -62 -99 -109 -133 -139 -100 -333 -99 -462 4 -112 89 -165 258 -124 395
17 56 12 86 -13 78 -14 -5 -15 -4 -2 5 11 8 18 7 28 -6 6 -9 13 -14 13 -10 1
4 2 11 3 17 0 5 11 17 24 25 20 15 22 15 22 1 0 -9 5 -16 10 -16 6 0 10 -9 10
-20 0 -23 -20 -70 -31 -70 -4 0 -9 -23 -11 -50 -1 -28 1 -50 6 -50 4 0 5 -7 2
-16 -8 -20 20 -48 39 -40 10 4 15 -1 15 -14 0 -11 3 -19 8 -19 26 4 34 -1 22
-16 -10 -12 -10 -21 -2 -40 9 -20 9 -23 -3 -18 -20 7 -19 -11 0 -27 9 -7 14
-19 11 -26 -6 -16 10 -28 25 -18 8 4 7 9 -2 15 -7 4 -10 11 -6 16 4 4 17 2 27
-5 11 -7 32 -12 46 -12 22 0 25 -2 14 -15 -10 -12 -10 -15 4 -15 9 0 16 -4 16
-10 0 -5 7 -7 16 -3 10 3 22 0 28 -8 6 -8 28 -22 50 -32 21 -10 40 -27 43 -37
6 -24 19 -26 27 -4 5 13 9 14 20 5 12 -10 13 -8 9 7 -3 14 1 22 15 26 27 9 80
56 63 56 -8 0 -20 -8 -27 -17 -13 -17 -15 -17 -29 1 -8 11 -15 16 -15 12 0 -5
-6 -3 -14 3 -7 6 -21 9 -30 5 -19 -7 -46 12 -46 32 0 21 45 28 72 11 42 -27
128 0 128 41 0 9 5 10 19 3 21 -12 31 -5 31 21 0 10 5 18 11 18 6 0 8 9 4 20
-7 21 10 28 18 8 3 -7 6 -3 6 10 1 12 6 22 11 22 6 0 10 7 10 16 0 8 -4 12
-10 9 -6 -3 -10 5 -10 19 0 28 -20 47 -21 19 0 -10 -3 -13 -6 -6 -3 8 -14 11
-30 7 -17 -5 -24 -3 -19 4 4 6 -2 8 -14 5 -11 -3 -26 0 -33 6 -8 6 -18 7 -22
3 -5 -4 -5 2 -1 12 4 11 2 22 -5 26 -8 5 -8 13 -1 27 8 15 6 27 -8 51 -20 32
-20 32 0 44 25 16 26 28 3 29 -10 0 1 8 24 17 46 19 63 32 42 32 -12 0 -11 2
1 10 13 9 13 11 0 20 -9 6 -10 10 -3 10 6 0 35 -21 63 -47z m-3470 7 c0 -6 -8
-14 -17 -17 -10 -4 -23 -14 -30 -22 -10 -14 -12 -14 -19 3 -8 20 12 39 33 31
7 -2 15 0 18 5 8 13 15 13 15 0z m162 -30 c12 -11 17 -20 11 -20 -11 0 -43 27
-43 36 0 9 12 3 32 -16z m2818 -20 c0 -5 -5 -10 -11 -10 -5 0 -7 -4 -4 -10 3
-6 -4 -10 -16 -10 -21 0 -22 1 -4 20 20 22 35 26 35 10z m105 0 c3 -5 -1 -10
-9 -10 -9 0 -16 5 -16 10 0 6 4 10 9 10 6 0 13 -4 16 -10z m-3059 -28 c-9 -9
-37 8 -31 18 5 8 11 7 21 -1 8 -6 12 -14 10 -17z m3826 -12 c10 -8 18 -18 18
-22 0 -12 -78 -10 -85 2 -4 6 -15 8 -26 5 -14 -5 -17 -3 -13 9 3 9 10 16 16
16 5 0 16 7 25 15 16 16 15 17 65 -25z m-3769 13 c-7 -2 -19 -2 -25 0 -7 3 -2
5 12 5 14 0 19 -2 13 -5z m67 -9 c0 -2 -9 -4 -21 -4 -11 0 -18 4 -14 10 5 8
35 3 35 -6z m1800 -19 c0 -30 -3 -35 -23 -35 -13 0 -28 -5 -35 -12 -8 -8 -15
-8 -27 2 -10 8 -15 9 -15 1 0 -6 -9 -11 -21 -11 -27 0 -22 33 6 39 11 2 22 7
25 12 3 4 23 15 45 22 22 8 41 15 43 16 1 0 2 -15 2 -34z m2615 -24 c4 -28 4
-59 0 -71 -7 -21 -7 -21 -27 -3 -17 15 -19 26 -15 66 10 84 31 88 42 8z
m-1315 39 c0 -5 -4 -10 -10 -10 -5 0 -10 5 -10 10 0 6 5 10 10 10 6 0 10 -4
10 -10z m678 -7 c-5 -26 -38 -29 -38 -4 0 15 6 21 21 21 14 0 19 -5 17 -17z
m1024 -61 c-20 -20 -40 -18 -59 7 -9 12 -7 21 9 43 l19 28 25 -30 c24 -28 25
-29 6 -48z m-5235 62 c-3 -3 -12 -4 -19 -1 -8 3 -5 6 6 6 11 1 17 -2 13 -5z
m535 -26 c-7 -7 -12 -8 -12 -2 0 6 3 14 7 17 3 4 9 5 12 2 2 -3 -1 -11 -7 -17z
m2822 6 c9 -8 16 -22 16 -29 0 -20 -20 -29 -33 -15 -9 10 -9 14 1 17 17 6 15
23 -3 23 -8 0 -15 5 -15 10 0 15 16 12 34 -6z m1261 6 c-3 -5 -10 -10 -16 -10
-5 0 -9 5 -9 10 0 6 7 10 16 10 8 0 12 -4 9 -10z m535 -17 c0 -21 -3 -24 -9
-14 -5 8 -7 20 -4 28 8 21 13 15 13 -14z m-4713 -48 c-5 -14 -75 -15 -80 -1
-3 8 11 11 39 11 25 0 42 -4 41 -10z m663 0 c7 -8 15 -13 19 -10 11 6 7 -25
-8 -65 -17 -46 -53 -65 -81 -42 -18 15 -19 22 -9 57 9 36 40 75 59 75 4 0 13
-7 20 -15z m2375 -25 c3 -5 1 -10 -4 -10 -6 0 -11 5 -11 10 0 6 2 10 4 10 3 0
8 -4 11 -10z m15 -51 c0 -13 4 -18 13 -13 6 4 9 4 5 -1 -4 -4 -3 -16 3 -27 8
-14 7 -24 -3 -36 -8 -9 -8 -13 -1 -9 15 10 43 -2 43 -18 0 -12 23 -27 44 -29
15 -2 19 -26 4 -26 -7 0 -24 -3 -37 -7 -16 -4 -22 -3 -17 5 11 18 -16 26 -29
9 -9 -12 -14 -14 -23 -5 -7 7 -12 18 -12 24 0 15 -36 28 -51 18 -8 -5 -10 3
-7 25 2 17 1 31 -4 31 -5 0 -6 5 -3 10 4 6 10 8 15 5 5 -3 12 -1 15 5 4 6 15
8 26 5 23 -8 24 3 3 33 -14 20 -14 22 0 22 9 0 16 -9 16 -21z m-2673 -51 c-3
-7 -5 -2 -5 12 0 14 2 19 5 13 2 -7 2 -19 0 -25z m2913 12 c0 -5 -4 -10 -10
-10 -5 0 -10 5 -10 10 0 6 5 10 10 10 6 0 10 -4 10 -10z m-410 -10 c0 -5 -4
-10 -10 -10 -5 0 -10 5 -10 10 0 6 5 10 10 10 6 0 10 -4 10 -10z m-2691 -32
c6 -17 3 -31 -11 -51 -11 -15 -23 -25 -28 -22 -5 3 -17 -6 -26 -20 -9 -13 -20
-23 -24 -20 -5 3 -6 -12 -3 -34 3 -21 0 -55 -7 -76 l-12 -37 -18 30 c-25 41
-37 46 -52 22 -7 -11 -19 -20 -26 -20 -7 0 -11 4 -8 9 3 5 -1 11 -9 15 -9 3
-15 18 -15 36 0 21 -4 29 -11 24 -7 -4 -10 -1 -7 7 2 8 20 19 39 25 29 10 34
16 31 39 -2 17 0 25 7 21 5 -4 30 3 54 14 24 11 54 22 67 25 13 3 28 11 32 20
12 20 17 19 27 -7z m-326 -84 c5 -26 2 -33 -18 -42 -21 -10 -23 -9 -20 14 1
13 -3 24 -9 24 -6 0 -2 7 8 15 11 8 16 15 12 15 -4 0 -4 5 0 11 9 15 20 0 27
-37z m3338 19 c-8 -15 -10 -15 -11 -2 0 17 10 32 18 25 2 -3 -1 -13 -7 -23z
m-3444 -35 c-3 -7 -5 -2 -5 12 0 14 2 19 5 13 2 -7 2 -19 0 -25z m158 -18 c3
-5 -3 -10 -15 -10 -12 0 -18 5 -15 10 3 6 10 10 15 10 5 0 12 -4 15 -10z
m3130 -90 c3 -5 1 -10 -4 -10 -6 0 -11 5 -11 10 0 6 2 10 4 10 3 0 8 -4 11
-10z m-3372 -151 c-11 -11 -16 118 -6 134 4 7 9 -19 11 -57 2 -38 -1 -73 -5
-77z m-229 35 c9 -8 16 -13 16 -9 0 11 48 -26 54 -42 4 -8 2 -21 -4 -28 -5 -6
-7 -15 -3 -18 6 -7 -19 -11 -44 -8 -7 1 -13 -2 -13 -7 0 -5 -13 -8 -30 -7 -16
1 -30 -3 -30 -9 0 -6 -7 -2 -16 9 -22 29 -14 69 14 73 17 3 22 10 22 33 0 32
11 37 34 13z m-397 -20 c14 -14 17 -14 25 -1 9 17 17 17 70 -3 29 -11 38 -21
46 -49 5 -20 7 -42 4 -49 -5 -17 -22 -15 -22 3 0 8 -4 15 -8 15 -12 0 -44 -59
-37 -70 3 -6 2 -10 -3 -10 -5 0 -8 -20 -6 -45 3 -37 0 -45 -14 -45 -10 0 -24
-6 -31 -12 -11 -10 -10 -8 0 10 8 12 18 22 24 22 9 0 11 17 16 123 1 16 -3 33
-8 38 -10 10 -55 0 -48 -11 3 -5 -4 -6 -16 -3 -13 4 -17 8 -9 13 8 5 7 9 -4
13 -19 8 -48 -2 -41 -13 3 -5 1 -11 -5 -15 -5 -3 -10 -1 -10 5 0 15 -22 35
-39 35 -18 0 -35 44 -18 46 7 1 33 1 60 -1 29 -1 47 2 47 9 0 15 9 14 27 -5z
m221 -85 c-9 -6 -10 -9 -1 -9 7 0 16 7 21 16 8 14 10 14 21 0 11 -14 11 -16
-5 -16 -18 -1 -18 -1 -1 -11 15 -9 25 -59 12 -59 -12 0 -45 36 -45 48 0 12 -3
12 -16 1 -15 -12 -16 -11 -9 11 5 14 8 31 8 37 0 10 4 10 14 1 11 -9 12 -13 1
-19z m622 -17 c0 -5 14 -19 31 -31 18 -13 28 -18 24 -11 -6 9 -3 9 13 1 13 -7
19 -17 16 -26 -7 -16 -14 -18 -59 -15 -39 3 -51 10 -34 21 10 6 10 9 2 9 -7 0
-11 12 -10 30 1 16 5 30 10 30 4 0 7 -4 7 -8z m406 -58 c-3 -8 0 -13 7 -11 7
1 12 -4 12 -12 0 -8 -8 -15 -18 -17 -10 -1 -15 2 -11 9 3 7 -1 4 -9 -5 -16
-20 -42 -24 -52 -8 -3 6 -1 10 6 10 9 0 9 4 -1 15 -14 17 -6 33 24 45 24 9 49
-6 42 -26z m-263 -9 c-1 -5 -10 -15 -20 -22 -16 -11 -18 -9 -18 13 0 19 5 24
20 22 11 -2 19 -7 18 -13z m390 -20 c4 -8 3 -16 -1 -19 -4 -3 -9 4 -9 15 -2
23 3 25 10 4z m-59 -9 c-7 -19 -34 -29 -34 -12 0 16 10 26 26 26 8 0 11 -6 8
-14z m-974 -16 c0 -5 -2 -10 -4 -10 -3 0 -8 5 -11 10 -3 6 -1 10 4 10 6 0 11
-4 11 -10z m5483 -262 c15 -11 34 -17 42 -14 8 3 15 1 15 -4 0 -11 -2 -12 -87
-14 -70 -1 -91 11 -73 41 15 24 62 20 103 -9z m-128 -156 c-5 -4 -10 -14 -10
-22 0 -16 -17 -17 -69 -4 -21 5 -27 4 -22 -5 4 -6 3 -11 -3 -11 -5 0 -12 4
-16 10 -3 5 14 14 37 20 24 6 48 13 53 15 19 7 40 5 30 -3z m114 -54 c11 -10
13 -10 7 0 -5 8 0 12 13 12 27 0 26 -4 -1 -30 -17 -16 -18 -19 -5 -15 10 4 17
2 17 -4 0 -11 -15 -16 -35 -11 -5 1 -22 2 -36 2 -22 -1 -25 3 -21 29 3 22 10
29 26 29 12 0 28 -6 35 -12z m140 -20 c13 -5 21 -11 18 -14 -5 -6 -107 25
-107 33 0 6 56 -6 89 -19z m-111 -60 c4 -2 6 -11 5 -20 -2 -13 4 -18 22 -18
32 0 41 -16 13 -23 -12 -4 -19 -9 -15 -13 4 -4 -1 -13 -11 -21 -14 -10 -14
-12 -1 -8 9 3 22 -1 29 -10 8 -10 9 -15 1 -15 -6 0 -11 -7 -11 -15 0 -13 -4
-13 -22 -4 -47 25 -58 29 -73 29 -35 0 -13 -30 33 -44 26 -8 40 -15 32 -16 -8
-1 -27 -3 -41 -5 -28 -4 -89 28 -89 46 0 6 -7 9 -15 6 -8 -4 -17 -2 -20 3 -4
6 -11 10 -17 10 -6 0 -3 -9 7 -20 10 -11 13 -20 8 -20 -17 0 -36 29 -29 45 4
13 2 14 -14 5 -16 -8 -26 -7 -42 5 -16 10 -18 15 -8 16 58 3 69 13 31 30 l-31
14 53 17 c28 10 61 18 72 18 11 0 31 6 45 13 22 12 53 10 88 -5z m-253 -68 c3
-5 1 -10 -4 -10 -6 0 -11 5 -11 10 0 6 2 10 4 10 3 0 8 -4 11 -10z m395 -30
c11 -8 9 -9 -12 -8 -16 1 -28 6 -28 10 0 11 22 10 40 -2z m90 -9 c0 -5 -7 -11
-14 -14 -10 -4 -13 -1 -9 9 6 15 23 19 23 5z m-455 -29 c-6 -7 -55 11 -50 18
3 5 16 3 29 -3 14 -7 23 -13 21 -15z m465 -12 c0 -5 -5 -10 -11 -10 -5 0 -7 5
-4 10 3 6 8 10 11 10 2 0 4 -4 4 -10z"/>
<path d="M5250 3890 c0 -5 5 -10 10 -10 6 0 10 5 10 10 0 6 -4 10 -10 10 -5 0
-10 -4 -10 -10z"/>
<path d="M5152 3878 c-22 -22 -13 -38 22 -38 43 0 66 24 37 39 -26 14 -44 14
-59 -1z"/>
<path d="M5290 3870 c13 -8 12 -10 -2 -10 -10 0 -18 -4 -18 -8 0 -5 -11 -14
-25 -20 -14 -6 -25 -20 -25 -29 0 -14 -2 -15 -9 -4 -5 8 -11 9 -15 3 -3 -5
-22 -13 -41 -16 -30 -6 -34 -10 -25 -25 8 -16 3 -19 -47 -25 -56 -7 -83 -19
-83 -38 0 -6 7 -5 15 2 20 16 19 5 -1 -26 -15 -23 -15 -26 0 -43 16 -17 16
-19 -4 -24 -12 -3 -20 -13 -20 -26 0 -24 -10 -27 -28 -9 -12 12 -16 0 -15 -40
1 -8 -5 -11 -13 -8 -11 4 -13 -2 -9 -26 3 -17 9 -36 12 -41 3 -6 1 -7 -5 -3
-19 11 -14 -3 13 -38 16 -21 22 -39 19 -54 -5 -18 -2 -21 22 -19 19 1 28 -2
26 -10 -1 -7 2 -13 8 -13 6 0 10 -7 10 -15 0 -17 -16 -20 -25 -4 -4 6 -14 8
-22 4 -13 -4 -13 -3 -4 9 9 11 7 15 -9 19 -11 3 -20 1 -20 -5 0 -5 -4 -6 -10
-3 -6 3 -7 -1 -3 -10 5 -13 7 -14 14 -3 7 10 9 9 9 -4 0 -22 56 -76 98 -94 55
-24 220 -18 181 7 -11 7 -11 9 2 9 18 0 21 30 4 42 -7 5 -7 8 0 9 6 0 18 2 28
4 9 2 17 -3 17 -10 0 -18 21 -24 48 -14 18 7 23 15 20 36 -1 16 -7 32 -13 36
-9 8 6 5 38 -8 8 -4 13 3 14 17 2 18 0 20 -7 8 -9 -13 -11 -13 -19 -1 -6 10
-3 23 10 40 17 24 18 30 5 72 -14 45 -14 47 9 59 13 7 28 10 33 6 17 -10 20
17 6 53 -18 42 -17 46 1 31 8 -7 15 -23 15 -36 0 -20 32 -54 51 -54 4 0 14 18
23 40 18 45 21 63 6 40 -7 -11 -11 -9 -19 13 -6 15 -15 27 -21 27 -5 0 -10 9
-10 20 0 11 -5 20 -11 20 -6 0 -22 14 -36 30 -20 24 -33 30 -63 30 -26 0 -42
-6 -48 -17 -8 -14 -14 -15 -41 -3 -17 7 -31 15 -31 19 1 18 28 37 50 35 14 -1
36 5 50 14 14 9 32 15 40 14 11 -2 10 2 -4 12 -10 9 -22 13 -26 11 -5 -3 -18
9 -31 25 -13 16 -31 30 -39 30 -13 0 -13 -1 0 -10z m-40 -60 c0 -5 -5 -10 -11
-10 -5 0 -7 5 -4 10 3 6 8 10 11 10 2 0 4 -4 4 -10z m123 -127 c15 6 47 -25
47 -45 0 -16 -19 -7 -25 11 -5 17 -7 17 -40 2 -19 -9 -33 -21 -30 -28 2 -7 -5
-15 -16 -18 -11 -4 -19 -16 -19 -28 -1 -12 -7 -33 -15 -47 -18 -32 -19 -44 -1
-37 10 4 13 1 10 -8 -3 -8 -12 -11 -20 -8 -8 3 -14 1 -14 -5 0 -5 -7 -13 -16
-16 -14 -5 -16 0 -12 38 6 51 -12 68 -42 41 -15 -14 -17 -13 -17 2 0 10 7 26
16 37 17 20 16 25 -8 43 -17 13 -9 17 34 14 13 -1 27 9 39 29 17 29 19 30 35
16 17 -15 19 -14 36 8 17 22 20 23 30 9 7 -9 19 -14 28 -10z m60 7 c3 -11 1
-23 -4 -26 -5 -3 -9 6 -9 20 0 31 6 34 13 6z m70 -97 c7 -9 5 -13 -7 -13 -11
0 -16 8 -15 28 0 15 3 21 6 12 3 -8 10 -21 16 -27z m-459 -8 c-4 -8 -15 -15
-25 -15 -27 0 -24 18 4 23 12 2 23 5 24 6 1 0 0 -6 -3 -14z m41 -11 c0 -5 4
-14 8 -21 4 -7 1 -10 -10 -9 -10 2 -20 13 -21 26 -3 15 1 21 10 18 7 -3 13 -9
13 -14z m405 -4 c10 -6 12 -12 5 -19 -7 -7 -14 -4 -23 9 -13 21 -6 25 18 10z
m-435 -30 c3 -5 1 -10 -4 -10 -6 0 -11 5 -11 10 0 6 2 10 4 10 3 0 8 -4 11
-10z m78 -112 c8 -24 -15 -58 -40 -58 -12 0 -23 5 -23 10 0 6 6 10 14 10 8 0
18 5 22 12 5 8 2 9 -9 5 -19 -7 -20 -6 -11 17 7 19 40 21 47 4z m181 -87 c-2
-3 -12 3 -22 13 -16 17 -16 18 5 5 12 -7 20 -15 17 -18z m-176 -20 c11 -7 10
-10 -3 -15 -19 -7 -35 0 -35 15 0 11 20 12 38 0z m177 -1 c3 -5 1 -10 -4 -10
-6 0 -11 5 -11 10 0 6 2 10 4 10 3 0 8 -4 11 -10z"/>
<path d="M5170 3549 c0 -5 5 -7 10 -4 6 3 10 8 10 11 0 2 -4 4 -10 4 -5 0 -10
-5 -10 -11z"/>
<path d="M5398 3783 c7 -3 16 -2 19 1 4 3 -2 6 -13 5 -11 0 -14 -3 -6 -6z"/>
<path d="M5020 3750 c0 -5 4 -10 9 -10 6 0 13 5 16 10 3 6 -1 10 -9 10 -9 0
-16 -4 -16 -10z"/>
<path d="M1391 3574 c-11 -13 -15 -13 -22 -3 -4 7 -11 10 -15 6 -4 -3 -1 -13
6 -22 7 -8 9 -15 5 -15 -4 0 -2 -7 5 -15 8 -9 8 -15 2 -15 -6 0 -12 -8 -14
-17 -5 -24 30 -42 61 -31 14 5 30 7 38 4 16 -6 68 68 58 83 -3 6 -1 11 4 11 6
0 11 3 11 8 0 4 -11 7 -25 7 -14 0 -25 -6 -25 -13 0 -7 -5 -10 -12 -6 -6 4
-17 -1 -24 -11 -8 -10 -17 -15 -21 -12 -3 4 2 14 13 22 16 13 17 16 4 25 -21
13 -33 12 -49 -6z"/>
<path d="M1554 3550 c-25 -10 -61 -60 -42 -60 6 0 23 10 36 23 14 12 21 15 17
7 -5 -10 -1 -8 13 4 12 11 22 20 22 21 0 9 -28 11 -46 5z"/>
<path d="M1630 3440 c0 -5 5 -10 10 -10 6 0 10 5 10 10 0 6 -4 10 -10 10 -5 0
-10 -4 -10 -10z"/>
<path d="M3490 2976 c0 -2 8 -10 18 -17 15 -13 16 -12 3 4 -13 16 -21 21 -21
13z"/>
<path d="M3441 2864 c-7 -8 -10 -18 -7 -21 3 -4 13 2 20 13 14 18 15 18 21 2
8 -20 26 -25 23 -5 -6 28 -36 34 -57 11z"/>
<path d="M3521 2839 c5 -10 19 -21 31 -25 12 -3 29 -13 36 -21 12 -12 17 -12
24 -1 6 10 8 8 6 -6 -2 -10 3 -21 10 -23 6 -3 12 2 12 11 0 10 6 13 15 10 8
-4 15 -2 15 3 0 5 -25 17 -55 27 -30 11 -52 22 -50 26 3 4 -8 10 -24 12 -26 4
-28 2 -20 -13z"/>
<path d="M3434 2808 c2 -7 11 -12 20 -12 9 1 16 -2 16 -7 0 -5 -5 -9 -12 -9
-6 0 -9 -3 -6 -6 4 -3 15 -1 26 5 17 9 19 8 15 -9 -3 -11 -10 -20 -16 -20 -6
0 -7 -3 -4 -6 4 -4 14 -1 22 6 12 10 21 10 41 1 37 -17 75 -15 68 4 -5 13 -9
13 -22 3 -13 -11 -15 -10 -9 5 3 9 2 18 -3 18 -6 1 -13 2 -17 3 -5 1 -23 6
-40 10 -18 4 -33 12 -33 17 0 6 -7 6 -19 -1 -13 -7 -21 -7 -24 0 -3 6 -4 5 -3
-2z"/>
<path d="M3400 2752 c0 -18 40 -36 53 -23 8 8 5 11 -9 11 -11 0 -25 5 -32 12
-9 9 -12 9 -12 0z"/>
<path d="M736 2162 c-3 -5 1 -15 8 -21 11 -10 14 -9 12 3 -3 21 -13 29 -20 18z"/>
<path d="M2253 1719 c18 -21 37 -39 42 -39 6 0 4 4 -3 9 -8 4 -14 12 -14 16 0
4 6 12 14 17 10 7 8 8 -5 4 -11 -4 -20 1 -25 12 -4 9 -15 18 -24 18 -13 1 -10
-7 15 -37z"/>
<path d="M4946 1644 c-5 -14 -4 -15 9 -4 17 14 19 20 6 20 -5 0 -12 -7 -15
-16z"/>
<path d="M5450 1510 c0 -5 5 -10 11 -10 5 0 7 5 4 10 -3 6 -8 10 -11 10 -2 0
-4 -4 -4 -10z"/>
<path d="M4955 1290 c3 -5 8 -10 11 -10 2 0 4 5 4 10 0 6 -5 10 -11 10 -5 0
-7 -4 -4 -10z"/>
<path d="M5155 1160 c-8 -13 19 -40 38 -40 26 0 47 11 47 25 0 23 -72 36 -85
15z"/>
<path d="M5270 1120 c0 -5 5 -10 11 -10 5 0 7 5 4 10 -3 6 -8 10 -11 10 -2 0
-4 -4 -4 -10z"/>
<path d="M5295 1390 c-3 -5 -1 -10 4 -10 6 0 11 5 11 10 0 6 -2 10 -4 10 -3 0
-8 -4 -11 -10z"/>
<path d="M1685 1050 c3 -5 11 -10 16 -10 6 0 7 5 4 10 -3 6 -11 10 -16 10 -6
0 -7 -4 -4 -10z"/>
<path d="M7055 580 c-3 -5 3 -10 15 -10 12 0 18 5 15 10 -3 6 -10 10 -15 10
-5 0 -12 -4 -15 -10z"/>
<path d="M6954 196 c11 -9 23 -16 28 -16 4 0 8 -6 8 -14 0 -8 5 -18 12 -22 7
-5 9 -2 5 8 -3 9 0 21 6 27 14 14 9 18 -38 26 -37 6 -39 5 -21 -9z"/>
</g>
</svg>
